<svg id="Capa_1" data-name="Capa 1" xmlns="http://www.w3.org/2000/svg" viewBox="0 0 2137.45 1570.06"><defs><style>.cls-1,.cls-2{isolation:isolate;fill:#00487c;}.cls-1{font-size:414.15px;font-family:RozhaOne-Regular, Rozha One;}.cls-2{font-size:133.33px;font-family:WorkSans-Regular, Work Sans;}.cls-3{letter-spacing:-0.01em;}.cls-4{letter-spacing:-0.02em;}.cls-5{letter-spacing:0em;}.cls-6{letter-spacing:-0.02em;}.cls-7{letter-spacing:-0.02em;}.cls-8{letter-spacing:0em;}.cls-9{letter-spacing:-0.02em;}.cls-10{fill:#729c72;}</style></defs><title>Meal for us</title><text id="Meal_for_us" data-name="Meal for us" class="cls-1" transform="translate(0 1326.08)">Meal for us</text><text id="lema" class="cls-2" transform="translate(456.87 1525.13)"><tspan class="cls-3">P</tspan><tspan x="80.13" y="0">o</tspan><tspan class="cls-4" x="161.2" y="0">r</tspan><tspan class="cls-5" x="212.53" y="0" xml:space="preserve"> un</tspan><tspan class="cls-6" x="423.06" y="0">a</tspan><tspan class="cls-7" x="495.46" y="0"> </tspan><tspan class="cls-8" x="537.59" y="0">vid</tspan><tspan class="cls-6" x="726.39" y="0">a</tspan><tspan x="798.79" y="0" xml:space="preserve"> mejo</tspan><tspan class="cls-9" x="1165.31" y="0">r</tspan></text><path class="cls-10" d="M1341.77,1290.06A39.76,39.76,0,1,0,1302,1250.3,39.76,39.76,0,0,0,1341.77,1290.06Zm0-58.93a19.18,19.18,0,1,1-19.18,19.17A19.17,19.17,0,0,1,1341.77,1231.13Z" transform="translate(-426.58 -737.13)"/><path class="cls-10" d="M1769.3,866.53a39.76,39.76,0,1,0-39.76-39.76A39.76,39.76,0,0,0,1769.3,866.53Zm0-58.93a19.18,19.18,0,1,1-19.17,19.17A19.18,19.18,0,0,1,1769.3,807.6Z" transform="translate(-426.58 -737.13)"/><path class="cls-10" d="M1526.83,1162.77a39.76,39.76,0,1,0,39.76-39.76A39.76,39.76,0,0,0,1526.83,1162.77Zm58.94,0a19.18,19.18,0,1,1-19.18-19.17A19.18,19.18,0,0,1,1585.77,1162.77Z" transform="translate(-426.58 -737.13)"/><path class="cls-10" d="M1305.81,1026.43a54.6,54.6,0,0,0,4.58,14.27l-1,.59,140.58,243.49a25.23,25.23,0,1,0,49.88-7.33l.42,0-9.66-260.27a55.28,55.28,0,0,0,.92-23c-5.84-33.58-42.17-56.16-85.28-55.6,10.09-15.66,13.94-42.67,8.67-71.6-7.5-41.18-30.72-71-52.41-67.94l10.23,129.5-46.38-118.75c-19.44,7.15-26.07,44.29-14.72,84.36,7.86,27.77,22.34,49.81,37.24,59.37C1318.86,970.11,1300.91,998.24,1305.81,1026.43Zm90.67-141.2c.79,25.37-3.74,46.35-10.13,47L1383.47,840C1389.88,839.69,1395.69,859.86,1396.48,885.23ZM1334.79,902c-10.18-22.93-14-43.54-8.48-46.19l37.07,83.45C1357.74,941.55,1345,924.94,1334.79,902Zm55.36,56.41c38.18-6.73,73.19,11.44,78.18,40.59a42.28,42.28,0,0,1-.68,17.36l.27,7.42-32.44,8.06a10.29,10.29,0,1,0,5,20l28.25-7,6.15,168.07h-.31a19.57,19.57,0,0,1,.34,3.62,18.78,18.78,0,0,1-37.49,1.92l-22.83-40.1,19.32-4.9a10.29,10.29,0,0,0-5-20l-24.84,6.29-28.09-49.33L1392,1106a10.29,10.29,0,1,0-5.49-19.84l-21.1,5.84L1341,1049.17l16.75-5.64a10.29,10.29,0,0,0-6.56-19.5l-19.23,6.46a41.6,41.6,0,0,1-1.91-7.13C1325.06,994.21,1352,965.13,1390.15,958.41Z" transform="translate(-426.58 -737.13)"/><path class="cls-10" d="M1240.81,1515.31l-.31,0a325.35,325.35,0,0,0,106.61,65.19,11.6,11.6,0,0,0,7.38,2.67h.07a11.67,11.67,0,0,0,7.81-20.35l.63-.5c-.9-.32-1.79-.66-2.68-1a11.65,11.65,0,0,0-3.58-1.31,303.47,303.47,0,0,1-101.21-62.63,11.67,11.67,0,1,0-14.72,17.87Z" transform="translate(-426.58 -737.13)"/><path class="cls-10" d="M1186.42,1450.8c.06.49.11,1,.14,1.49v.29s0,0,0,.06.06.32.08.47l.06.21c.51.84,1,1.68,1.55,2.5a.53.53,0,0,1-.06-.1c.13.21.25.42.4.63l-.06-.07q7.62,11.82,16.25,22.75c0-.18.07-.34.1-.51a11.68,11.68,0,1,0,19-13.3,277.93,277.93,0,0,1-16.78-23.76c-.42-.29-.84-.59-1.23-.92a14.8,14.8,0,0,1-1.68-1.27c-.65-.23-1.28-.5-1.9-.79a18.92,18.92,0,0,1-2.28-.54c-.43,0-.86,0-1.3,0s-1.09,0-1.62-.07c-.26,0-.52.06-.78.08-.42.12-.85.22-1.27.3l-.24.08c-.41.15-.83.27-1.25.39-.6.34-1.22.64-1.85.92l-.3.18c-.22.18-.46.35-.69.52l-.3.23c-.22.22-.45.44-.69.65l-.06.07-.31.36c-.22.33-.48.64-.72,1-.26.48-.56.95-.87,1.41,0,.1-.12.2-.18.31-.12.34-.26.67-.4,1l-.21.56c-.06.25-.14.5-.21.74s0,.44,0,.66c0,.43-.1.85-.17,1.27s0,.94-.06,1.41l0,.34c0-.1,0-.2,0-.3C1186.49,1450.31,1186.46,1450.55,1186.42,1450.8Z" transform="translate(-426.58 -737.13)"/><path class="cls-10" d="M1209.6,986.09a327.29,327.29,0,0,0,52.94,98.54,11.59,11.59,0,0,0,4.89,6.13v0h0l0,0a11.67,11.67,0,0,0,17.29-13.28l.8-.1c-.6-.74-1.18-1.49-1.77-2.24a11.66,11.66,0,0,0-2.37-3,307.35,307.35,0,0,1-45.26-80.56l.28-.29a17.93,17.93,0,0,1-.68-4.1,13,13,0,0,1,.37-3.7,4.94,4.94,0,0,1,.38-1.74c0-.11,0-.22,0-.33a4.72,4.72,0,0,1,1.34-4c-.1-.16-.2-.3-.29-.46,29.82-23.22,42.84-70.78,29.37-118.71-14.08-50.09-52.56-84.44-91.8-85.67L1175,772c-.39.2-.77.43-1.17.65-.59,0-1.19,0-1.79,0l.2.9c-34.16,19.63-52.24,68.65-41.4,120.29C1141,942.16,1173.37,978.2,1209.6,986.09Zm-30.09-184.58-.15-.66c.44,0,.88,0,1.32,0l.87-.47.13.49c28.93.9,57.29,26.22,67.67,63.14s-.54,73.41-24.57,89.61a299.88,299.88,0,0,1-27.71-90,11.67,11.67,0,1,0-22.66,4.72l-.27-.17a320.88,320.88,0,0,0,26.77,88.22c-24.15-8.27-45-33.42-51.91-66.28C1141,852.11,1154.33,816,1179.51,801.51Z" transform="translate(-426.58 -737.13)"/><path class="cls-10" d="M1566.24,983.05a13.08,13.08,0,0,0,7.83-6.44c.24.15.47.29.7.45.07-1,.16-1.92.24-2.88a11,11,0,0,0,.31-3.84,301,301,0,0,1,35.24-116.55,11.25,11.25,0,0,0,1.32-9.28c-1.88-6.17-8.81-9.53-15.48-7.49a12.84,12.84,0,0,0-8.61,8.33c0-.1-.09-.19-.13-.28a322.12,322.12,0,0,0-36.3,122.51,11.14,11.14,0,0,0-.62,7.9v0h0s0,0,0,0C1552.64,981.72,1559.57,985.08,1566.24,983.05Z" transform="translate(-426.58 -737.13)"/><path class="cls-10" d="M1542.39,1045.64a39.19,39.19,0,0,0,77.66,7.46c41.52-10.24,80.7-51.15,97.55-107.42,14.94-49.93,8.54-99.4-13.38-131.84a53.39,53.39,0,1,0-101-30c-36,15.15-68.37,52.89-83.27,102.66-17.28,57.74-6,114.88,24.79,145.75A39.19,39.19,0,0,0,1542.39,1045.64Zm-7.21-123.5a154,154,0,0,1,19-59.2c18.16-34.92,45.64-58.79,73.25-63.69A29.81,29.81,0,1,1,1675,812.78c27.25,24.37,37.27,76.06,22,129.36-17.12,59.9-60.23,101.21-100.4,99a17.25,17.25,0,0,1,.56,4.28,17.06,17.06,0,1,1-27.74-13.29C1541.75,1013.83,1528.2,970.4,1535.18,922.14Z" transform="translate(-426.58 -737.13)"/><path class="cls-10" d="M1077.69,1038.19a39.76,39.76,0,1,0-39.76-39.75A39.76,39.76,0,0,0,1077.69,1038.19Zm0-58.93a19.18,19.18,0,1,1-19.17,19.18A19.18,19.18,0,0,1,1077.69,979.26Z" transform="translate(-426.58 -737.13)"/><path class="cls-10" d="M1952.56,1010.07q.66-9.84.38-19c-3.32-10.74-7-21.37-11.17-31.8l-1.08-2.64c-.65-1.5-1.3-3-2-4.51q-2.18-4.83-4.54-9.58c-3.13-6.25-6.52-12.37-10.23-18.29-1-1.55-2-3.08-3-4.6-.2-.12-.39-.25-.59-.36a51.65,51.65,0,0,0-11.84-5c-5.4.07-10.8.17-16.2.36-12.24.43-24.47,1.22-36.63,2.69l-1.47.18-.37,0c-1.41.2-2.81.41-4.22.63-3,.48-6.06,1-9.08,1.59-5.75,1.11-11.47,2.42-17.12,4a171.13,171.13,0,0,0-17,5.67l-1.37.55-.87.37-2.34,1.1A152.38,152.38,0,0,0,1785,942.75a154.6,154.6,0,0,0-15.9,14c-24.4,13.7-48.22,34.25-68.33,60.56-34.14,44.66-49.47,95.32-44.77,135.67-5.63,32.21-3.61,63,4.63,88.06l-82.52,47.65-1.33-.19a5.61,5.61,0,0,1-1.64.68l0,.34a10.33,10.33,0,0,0,1.35,20.57l.34,0a6.61,6.61,0,0,1,1.79-.25,5.87,5.87,0,0,1,2.88.71,4.93,4.93,0,0,1,.55,0l.31-.18,89.56,12.66,10.56,15.65H1256.78l14.18-4.38-38.13-123.52a50.76,50.76,0,1,0-39-90.57,65.38,65.38,0,0,0-128,16.2,65.38,65.38,0,0,0-71.39,102.63A65.38,65.38,0,1,0,1112.83,1293l34.25,45.75H1075.3v19.43h.59c11.14,183.62,179.17,329.41,384.82,329.41s373.68-145.79,384.82-329.41h0q.59-9.64.59-19.43h-94.87l2.71-28.79c16.68-5.94,34.43-16.33,52.27-30.51,35.16-10.59,72.08-36.62,101.2-74.72,28-36.59,43.3-77.2,45.35-112.87C1958.68,1062.53,1958.25,1034.26,1952.56,1010.07ZM1099,1249.65c-3,1.59-5.89,3.22-8.79,4.92a45,45,0,1,1-71.19-14.32c-.19-.7-.39-1.41-.45-1.59-.5-1.59-1.14-3.14-1.79-4.67a8.46,8.46,0,0,1-.63-3.1,45,45,0,0,1,61.59-65.5,14.08,14.08,0,0,1,2.2,1c.83.49,1.48.88,2,1.19a11.12,11.12,0,0,1,7.32-2.8,12.68,12.68,0,0,1,1.67-1.27,13.58,13.58,0,0,1,.93-3.58,45,45,0,1,1,83.5-28.51,13.46,13.46,0,0,1,3.63,4.59,10.69,10.69,0,0,1,3.32,3.7,10.22,10.22,0,0,1,2.75,2.14,12.83,12.83,0,0,1,3.13-.39,12.64,12.64,0,0,1,3.76.55,36.28,36.28,0,0,1,6.77-2.23,10.7,10.7,0,0,1,4.5-2.22,30.06,30.06,0,1,1,1.47,45.68l-.06.17,41.49,137.43-28.73,8.67-38.56-81.9h0a10.58,10.58,0,0,0-19.14,9h0l37.23,79.07-9.79,3h-18.26Zm361.74,415c-167.22,0-307.8-103.15-348.35-243h696.7C1768.51,1561.52,1627.93,1664.67,1460.71,1664.67ZM1814,1402.25H1107.44a298,298,0,0,1-6.24-44.12h719A295.36,295.36,0,0,1,1814,1402.25Zm109-295.43c-3,14.57-9,28.68-15.76,41.87a244.3,244.3,0,0,1-53.37,69.49c-20.47,18.29-44.49,30.77-70.12,39.67a49.85,49.85,0,0,1-11.7,8.38,16.27,16.27,0,0,1-5.68,4.56c-5.39,2.56-10.8,5.09-16.06,7.93-2.42,1.31-4.81,2.68-7.14,4.16-1.14.73-2.24,1.51-3.37,2.26-1.55,1.46-3.57,4.27-5.32,5.4-.43.71-.83,1.43-1.23,2.15-.06.25-.13.54-.23.9,0,.15-.07.3-.11.44-.06.85-.24,1.76-.23,2.54,0,1.47,1,7.49-.07,1.33.08.49.14,1,.2,1.47a23.23,23.23,0,0,1,.55,4.11,17.32,17.32,0,0,1-.49,5,6.83,6.83,0,0,1,.12,4.59,6.72,6.72,0,0,1-.78,5.82l-1.87,19.86h-22.69l-19.14-28.37-.57.39a10.33,10.33,0,0,0-10-7.7h-.09l0-.23-66.22-9.36,54.34-31.37a2.61,2.61,0,0,0,.06.27c.18-.13.35-.27.54-.39a5.05,5.05,0,0,1,3.61-.8,23.13,23.13,0,0,1,4-3.33c.65-.4,1.28-.82,1.89-1.27l.28-.2,1-1c1.84-1.63,3.61-3.35,5.38-5.06,2.54-2.45,5.08-4.9,7.73-7.22a19.06,19.06,0,0,1-2.3-9.51c.1-3.09-.18-6.06-.29-9.13a2.26,2.26,0,0,1,0-.25c-.22-1.33-.43-2.65-.66-4-1.11-6.39-2.24-12.76-3-19.21a62.42,62.42,0,0,1,.64-18c-.29-6.79-.25-13.59.09-20.33.14-2.87.41-5.72.75-8.57-.52-22.3,5.18-43.21,13.27-63.63a22.53,22.53,0,0,1,4.28-10.34c.13-.29.25-.58.37-.87a12.81,12.81,0,0,1,1-1.75,172.86,172.86,0,0,1,24.4-43.45,179.49,179.49,0,0,1,16.41-18.67,318.18,318.18,0,0,0,58.58,42,11.69,11.69,0,0,0,5,3.53l-.3.11A325,325,0,0,0,1924,1101.37C1923.64,1103.2,1923.31,1105,1922.93,1106.82Zm3.8-29.58c0,.56-.09,1.13-.14,1.7a310.63,310.63,0,0,1-59.66-15.83,12.11,12.11,0,0,0-1.86-2.17c.21-.17.41-.34.63-.5l-2.68-1a11.41,11.41,0,0,0-3.58-1.32,304.44,304.44,0,0,1-96.26-58.08,146.49,146.49,0,0,1,15.6-10.15,111.72,111.72,0,0,1,28.87-21.08,18.24,18.24,0,0,1,10.59-8.92c9-3.06,17.8-6.82,26.83-9.88a14.47,14.47,0,0,1,2.53-.59,45.21,45.21,0,0,1,9.81-1.5,43.22,43.22,0,0,1,8.66-1c8-5,18.2-5.68,27.28-6.8a5.14,5.14,0,0,1,2.07.13,4.87,4.87,0,0,1,5,1.48,66,66,0,0,1,17.49,36.71,4.64,4.64,0,0,1-.75,3.38,135.26,135.26,0,0,1,7.39,29.58A304.78,304.78,0,0,1,1926.73,1077.24Z" transform="translate(-426.58 -737.13)"/><path class="cls-10" d="M1742,1059.11a11.65,11.65,0,0,0-7.68,8.27c0-.1-.09-.19-.13-.28a325.08,325.08,0,0,0-28.68,121.62,11.57,11.57,0,0,0-.25,7.84v0h0l0,.05a11.66,11.66,0,0,0,21.77,1.07l.67.45c0-1,.07-1.9.1-2.86a11.55,11.55,0,0,0,.13-3.81,303.56,303.56,0,0,1,27.94-115.7,11.67,11.67,0,0,0-13.89-16.67Z" transform="translate(-426.58 -737.13)"/><path class="cls-10" d="M1824.69,982.45a16.2,16.2,0,1,0,16.2,16.2A16.2,16.2,0,0,0,1824.69,982.45Z" transform="translate(-426.58 -737.13)"/></svg>