<?xml version="1.0" encoding="utf-8"?>
<!-- Generator: Adobe Illustrator 22.0.1, SVG Export Plug-In . SVG Version: 6.00 Build 0)  -->
<svg version="1.1" id="Capa_1" xmlns="http://www.w3.org/2000/svg" xmlns:xlink="http://www.w3.org/1999/xlink" x="0px" y="0px"
	 viewBox="0 0 2824.6 559.4" style="enable-background:new 0 0 2824.6 559.4;" xml:space="preserve">
<style type="text/css">
	.st0{enable-background:new    ;}
	.st1{fill:#00487C;}
	.st2{fill:#729C72;}
	.st3{font-family:'RozhaOne-Regular';}
	.st4{font-size:414.15px;}
</style>
<path class="st2" d="M225.6,325.5c12.1,0,22-9.8,22-22c0-12.1-9.8-22-22-22c-12.1,0-22,9.8-22,22
	C203.6,315.7,213.5,325.5,225.6,325.5C225.6,325.5,225.6,325.5,225.6,325.5z M225.6,292.9c5.9,0,10.6,4.7,10.6,10.6
	s-4.7,10.6-10.6,10.6c-5.9,0-10.6-4.7-10.6-10.6c0,0,0,0,0,0C215,297.7,219.8,292.9,225.6,292.9
	C225.6,292.9,225.6,292.9,225.6,292.9z"/>
<path class="st2" d="M462,91.4c12.1,0,22-9.8,22-22s-9.8-22-22-22s-22,9.8-22,22S449.8,91.4,462,91.4L462,91.4z M462,58.8
	c5.9,0,10.6,4.7,10.6,10.6c0,5.9-4.7,10.6-10.6,10.6c-5.9,0-10.6-4.7-10.6-10.6c0,0,0,0,0,0C451.4,63.5,456.1,58.8,462,58.8
	L462,58.8z"/>
<path class="st2" d="M327.9,255.1c0,12.1,9.8,22,22,22s22-9.8,22-22s-9.8-22-22-22S327.9,243,327.9,255.1L327.9,255.1z M360.5,255.1
	c0,5.9-4.7,10.6-10.6,10.6c-5.9,0-10.6-4.7-10.6-10.6c0-5.9,4.7-10.6,10.6-10.6c0,0,0,0,0,0C355.8,244.5,360.5,249.3,360.5,255.1
	L360.5,255.1z"/>
<path class="st2" d="M205.7,179.8c0.5,2.7,1.3,5.4,2.5,7.9l-0.6,0.3l77.7,134.6c0.8,7.7,7.7,13.2,15.3,12.4
	c7.7-0.8,13.2-7.7,12.4-15.3c0-0.4-0.1-0.8-0.2-1.2h0.2l-5.3-143.9c1.1-4.2,1.2-8.5,0.5-12.7c-3.2-18.6-23.3-31-47.1-30.7
	c5.6-8.7,7.7-23.6,4.8-39.6c-4.1-22.8-17-39.3-29-37.6l5.7,71.6L217.1,60c-10.7,4-14.4,24.5-8.1,46.6c4.3,15.4,12.4,27.5,20.6,32.8
	C213,148.6,203,164.2,205.7,179.8z M255.9,101.7c0.4,14-2.1,25.6-5.6,26l-1.6-51C252.2,76.5,255.4,87.7,255.9,101.7L255.9,101.7z
	 M221.8,111c-5.6-12.7-7.7-24.1-4.7-25.5l20.5,46.1C234.5,132.8,227.4,123.7,221.8,111z M252.4,142.2c21.1-3.7,40.5,6.3,43.2,22.4
	c0.5,3.2,0.4,6.5-0.4,9.6l0.1,4.1l-17.9,4.5c-3.1,0.8-4.9,3.9-4.1,6.9c0.8,3.1,3.9,4.9,6.9,4.1l15.6-3.9l3.4,92.9H299
	c0.1,0.7,0.2,1.3,0.2,2c0.1,5.7-4.5,10.5-10.2,10.6c-5.5,0.1-10.1-4.1-10.5-9.5l-12.6-22.2l10.7-2.7c3.1-0.8,4.9-3.9,4.1-6.9
	c-0.8-3.1-3.9-4.9-6.9-4.1l-13.7,3.5l-15.5-27.3l8.9-2.4c3-0.8,4.8-4,4-7c-0.8-3-4-4.8-7-4l-11.7,3.2l-13.5-23.7l9.3-3.1
	c3-1.1,4.5-4.3,3.4-7.3c-1-2.9-4.1-4.4-7-3.5l-10.6,3.6c-0.5-1.3-0.8-2.6-1.1-3.9C216.4,162,231.3,145.9,252.4,142.2z"/>
<path class="st2" d="M169.8,450h-0.2c17.1,15.7,37.1,27.9,58.9,36c1.1,1,2.6,1.5,4.1,1.5h0c3.6,0,6.5-2.9,6.5-6.4
	c0-1.8-0.8-3.6-2.1-4.8l0.3-0.3c-0.5-0.2-1-0.4-1.5-0.6c-0.6-0.3-1.3-0.6-2-0.7c-20.8-7.7-39.8-19.5-56-34.6
	c-2.4-2.6-6.5-2.7-9.1-0.3c-2.6,2.4-2.7,6.5-0.3,9.1C168.9,449.4,169.3,449.7,169.8,450L169.8,450z"/>
<path class="st2" d="M139.7,414.4c0,0.3,0.1,0.6,0.1,0.8v0.2c0,0,0,0,0,0s0,0.2,0,0.3l0,0.1c0.3,0.5,0.6,0.9,0.9,1.4c0,0,0,0,0-0.1
	c0.1,0.1,0.1,0.2,0.2,0.3l0,0c2.8,4.4,5.8,8.5,9,12.6c0-0.1,0-0.2,0.1-0.3c1.7,3.1,5.6,4.3,8.7,2.7c3.1-1.7,4.3-5.6,2.7-8.7
	c-0.2-0.5-0.5-0.9-0.9-1.3c-3.3-4.2-6.4-8.6-9.3-13.1c-0.2-0.2-0.5-0.3-0.7-0.5c-0.3-0.2-0.6-0.4-0.9-0.7c-0.4-0.1-0.7-0.3-1.1-0.4
	c-0.4-0.1-0.8-0.2-1.3-0.3c-0.2,0-0.5,0-0.7,0s-0.6,0-0.9,0c-0.1,0-0.3,0-0.4,0c-0.2,0.1-0.5,0.1-0.7,0.2l-0.1,0
	c-0.2,0.1-0.5,0.1-0.7,0.2c-0.3,0.2-0.7,0.4-1,0.5l-0.2,0.1c-0.1,0.1-0.3,0.2-0.4,0.3l-0.2,0.1c-0.1,0.1-0.2,0.2-0.4,0.4l0,0
	l-0.2,0.2c-0.1,0.2-0.3,0.4-0.4,0.6c-0.1,0.3-0.3,0.5-0.5,0.8c0,0.1-0.1,0.1-0.1,0.2c-0.1,0.2-0.1,0.4-0.2,0.6l-0.1,0.3
	c0,0.1-0.1,0.3-0.1,0.4c0,0.1,0,0.2,0,0.4c0,0.2-0.1,0.5-0.1,0.7c0,0.2,0,0.5,0,0.8v0.2c0-0.1,0-0.1,0-0.2
	C139.8,414.1,139.8,414.2,139.7,414.4z"/>
<path class="st2" d="M152.5,157.5c6.6,19.7,16.5,38.1,29.3,54.5c0.5,1.4,1.4,2.6,2.7,3.4l0,0l0,0l0,0c3,1.9,7,0.9,8.9-2.1
	c1-1.6,1.2-3.5,0.7-5.2l0.4-0.1c-0.3-0.4-0.7-0.8-1-1.2c-0.3-0.6-0.8-1.2-1.3-1.7c-10.5-13.5-19-28.5-25-44.5l0.2-0.2
	c-0.2-0.7-0.3-1.5-0.4-2.3c0-0.7,0-1.4,0.2-2c0-0.3,0.1-0.7,0.2-1c0-0.1,0-0.1,0-0.2c-0.1-0.8,0.2-1.6,0.7-2.2
	c-0.1-0.1-0.1-0.2-0.2-0.3c16.5-12.8,23.7-39.1,16.2-65.6c-7.8-27.7-29.1-46.7-50.8-47.4l0-0.3c-0.2,0.1-0.4,0.2-0.6,0.4
	c-0.3,0-0.7,0-1,0l0.1,0.5C113,50.8,103,77.9,109,106.5C114.6,133.2,132.5,153.1,152.5,157.5z M135.9,55.4l-0.1-0.4
	c0.2,0,0.5,0,0.7,0l0.5-0.3l0.1,0.3c16,0.5,31.7,14.5,37.4,34.9s-0.3,40.6-13.6,49.5c-7.7-15.7-12.9-32.5-15.3-49.8
	c-0.3-3.6-3.4-6.2-6.9-5.9c-3.6,0.3-6.2,3.4-5.9,6.9c0,0.6,0.2,1.1,0.3,1.6l-0.1-0.1c2.6,16.9,7.5,33.3,14.8,48.8
	c-13.4-4.6-24.9-18.5-28.7-36.6C114.6,83.4,122,63.4,135.9,55.4z"/>
<path class="st2" d="M349.7,155.8c1.9-0.6,3.4-1.8,4.3-3.6c0.1,0.1,0.3,0.2,0.4,0.2c0-0.6,0.1-1.1,0.1-1.6c0.2-0.7,0.2-1.4,0.2-2.1
	c2-22.6,8.7-44.5,19.5-64.4c1-1.5,1.2-3.4,0.7-5.1c-1-3.4-4.9-5.3-8.6-4.1c-2.2,0.7-4,2.4-4.8,4.6c0-0.1,0-0.1-0.1-0.2
	c-11.1,21-18,44-20.1,67.7c-0.6,1.4-0.8,2.9-0.3,4.4l0,0l0,0l0,0C342.2,155,346,156.9,349.7,155.8z"/>
<path class="st2" d="M336.5,190.4c0,12,9.7,21.7,21.7,21.7c10.4,0,19.3-7.4,21.3-17.5c23-5.7,44.6-28.3,53.9-59.4
	c8.3-27.6,4.7-55-7.4-72.9c7.1-14.7,1-32.3-13.7-39.4c-14.7-7.1-32.3-1-39.4,13.7c-1.4,2.9-2.3,6-2.7,9.2
	c-19.9,8.4-37.8,29.2-46,56.8c-9.6,31.9-3.3,63.5,13.7,80.6C337,185.4,336.5,187.9,336.5,190.4z M332.6,122.1
	c1.2-11.5,4.8-22.6,10.5-32.7c10-19.3,25.2-32.5,40.5-35.2c-2.8-8.7,1.9-18,10.6-20.8c8.7-2.8,18,1.9,20.8,10.6
	c2.1,6.4,0.1,13.4-5,17.7c15.1,13.5,20.6,42.1,12.2,71.5c-9.5,33.1-33.3,56-55.5,54.7c0.2,0.8,0.3,1.6,0.3,2.4
	c0,5.2-4.2,9.4-9.4,9.4c-5.2,0-9.4-4.2-9.4-9.4c0-2.9,1.3-5.6,3.5-7.4C336.2,172.8,328.7,148.8,332.6,122.1z"/>
<path class="st2" d="M79.6,186.3c12.1,0,22-9.8,22-22s-9.8-22-22-22c-12.1,0-22,9.8-22,22c0,0,0,0,0,0
	C57.6,176.4,67.5,186.3,79.6,186.3z M79.6,153.7c5.9,0,10.6,4.7,10.6,10.6c0,5.9-4.7,10.6-10.6,10.6c-5.9,0-10.6-4.7-10.6-10.6
	c0,0,0,0,0,0C69,158.4,73.8,153.7,79.6,153.7L79.6,153.7z"/>
<path class="st2" d="M563.3,170.7c0.2-3.6,0.3-7.1,0.2-10.5c-1.8-5.9-3.9-11.8-6.2-17.6l-0.6-1.5c-0.4-0.8-0.7-1.7-1.1-2.5
	c-0.8-1.8-1.6-3.5-2.5-5.3c-1.7-3.5-3.6-6.8-5.7-10.1c-0.6-0.9-1.1-1.7-1.7-2.5c-0.1-0.1-0.2-0.1-0.3-0.2c-2.1-1.2-4.3-2.1-6.5-2.8
	c-3,0-6,0.1-9,0.2c-6.8,0.2-13.5,0.7-20.3,1.5l-0.8,0.1h-0.2c-0.8,0.1-1.6,0.2-2.3,0.3c-1.7,0.3-3.4,0.6-5,0.9
	c-3.2,0.6-6.3,1.3-9.5,2.2c-3.2,0.9-6.3,1.9-9.4,3.1l-0.8,0.3l-0.5,0.2l-1.3,0.6c-3.2,1.9-6.3,4-9.3,6.3c-3.1,2.4-6,5-8.8,7.7
	c-13.5,7.6-26.7,18.9-37.8,33.5c-18.9,24.7-27.4,52.7-24.8,75c-3.1,17.8-2,34.8,2.6,48.7l-45.6,26.3l-0.7-0.1
	c-0.3,0.2-0.6,0.3-0.9,0.4v0.2c-3.1,0.4-5.3,3.3-4.9,6.4c0.4,2.8,2.8,5,5.7,5h0.2c0.3-0.1,0.7-0.1,1-0.1c0.6,0,1.1,0.1,1.6,0.4
	c0.1,0,0.2,0,0.3,0l0.2-0.1l49.5,7l5.8,8.7H178.6l7.8-2.4l-21.1-68.3c15.3-2.6,25.6-17,23-32.3c-2.6-15.3-17-25.6-32.3-23
	c-4.4,0.7-8.7,2.6-12.3,5.3c-5.7-19.1-25.8-30-45-24.3c-14.9,4.4-25.2,17.8-25.8,33.3c-19-6.1-39.4,4.4-45.5,23.4
	c-3.7,11.4-1.4,23.9,6,33.4c-10.1,17.2-4.2,39.4,13,49.4c17.2,10.1,39.4,4.2,49.4-13c1.2-2.1,2.2-4.3,3-6.6l18.9,25.3H78.3v10.7h0.3
	c6.2,101.5,99.1,182.1,212.8,182.1S498,464.7,504.1,363.2l0,0c0.2-3.6,0.3-7.1,0.3-10.7H452l1.5-15.9c9.2-3.3,19-9,28.9-16.9
	c19.4-5.9,39.9-20.2,55.9-41.3c15.5-20.2,23.9-42.7,25.1-62.4C566.7,199.7,566.4,184.1,563.3,170.7z M91.4,303.2
	c-1.7,0.9-3.3,1.8-4.9,2.7c5.8,12.5,0.3,27.3-12.1,33s-27.3,0.3-33-12.1c-4.6-9.8-2.2-21.5,5.8-28.8c-0.1-0.4-0.2-0.8-0.2-0.9
	c-0.3-0.9-0.6-1.7-1-2.6c-0.2-0.5-0.3-1.1-0.3-1.7c-9.6-9.9-9.4-25.6,0.5-35.2c9.2-9,23.8-9.4,33.5-1c0.4,0.1,0.8,0.3,1.2,0.6
	c0.5,0.3,0.8,0.5,1.1,0.7c1.1-1,2.6-1.5,4-1.5c0.3-0.3,0.6-0.5,0.9-0.7c0.1-0.7,0.3-1.3,0.5-2c-6.9-11.9-2.9-27.1,9-34
	c11.9-6.9,27.1-2.9,34,9c1.7,2.9,2.7,6,3.2,9.3c0.8,0.7,1.5,1.6,2,2.5c0.8,0.5,1.4,1.2,1.8,2c0.6,0.3,1.1,0.7,1.5,1.2
	c0.6-0.1,1.1-0.2,1.7-0.2c0.7,0,1.4,0.1,2.1,0.3c1.2-0.5,2.5-0.9,3.7-1.2c0.7-0.6,1.6-1,2.5-1.2c6.8-6.2,17.3-5.7,23.5,1.1
	c6.2,6.8,5.7,17.3-1.1,23.5c-6,5.5-15.2,5.8-21.6,0.7l0,0.1l22.9,76l-15.9,4.8L135.5,302l0,0c-1.5-2.9-5-4-7.9-2.6
	c-2.8,1.4-4,4.7-2.7,7.5l0,0l20.6,43.7l-5.4,1.7H130L91.4,303.2z M291.4,532.6c-92.4,0-170.2-57-192.6-134.3H484
	C461.5,475.6,383.8,532.6,291.4,532.6L291.4,532.6z M486.7,387.5H96.1c-1.8-8-2.9-16.2-3.4-24.4h397.5
	C489.6,371.4,488.5,379.5,486.7,387.5z M547,224.2c-1.7,8.1-5,15.9-8.7,23.1c-7.4,14.5-17.4,27.5-29.5,38.4
	c-11.3,10.1-24.6,17-38.8,21.9c-1.9,1.8-4.1,3.4-6.5,4.6c-0.8,1.1-1.9,1.9-3.1,2.5c-3,1.4-6,2.8-8.9,4.4c-1.3,0.7-2.7,1.5-3.9,2.3
	c-0.6,0.4-1.2,0.8-1.9,1.2c-0.9,0.8-2,2.4-2.9,3c-0.2,0.4-0.5,0.8-0.7,1.2c0,0.1-0.1,0.3-0.1,0.5c0,0.1,0,0.2-0.1,0.2
	c0,0.5-0.1,1-0.1,1.4c0,0.8,0.6,4.1,0,0.7c0,0.3,0.1,0.6,0.1,0.8c0.2,0.7,0.3,1.5,0.3,2.3c0,0.9,0,1.9-0.3,2.8
	c0.3,0.8,0.3,1.7,0.1,2.5c0.4,1.1,0.2,2.3-0.4,3.2l-1,11h-12.5l-10.6-15.7L417,337c-0.7-2.5-2.9-4.3-5.5-4.3h0v-0.1l-36.6-5.2
	l30-17.3c0,0.1,0,0.1,0,0.1c0.1-0.1,0.2-0.1,0.3-0.2c0.6-0.4,1.3-0.6,2-0.4c0.7-0.7,1.4-1.3,2.2-1.8c0.4-0.2,0.7-0.5,1-0.7l0.2-0.1
	l0.6-0.6c1-0.9,2-1.9,3-2.8c1.4-1.4,2.8-2.7,4.3-4c-0.9-1.6-1.3-3.4-1.3-5.3c0.1-1.7-0.1-3.4-0.2-5c0,0,0-0.1,0-0.1
	c-0.1-0.7-0.2-1.5-0.4-2.2c-0.6-3.5-1.2-7.1-1.7-10.6c-0.4-3.3-0.2-6.7,0.4-10c-0.2-3.8-0.1-7.5,0-11.2c0.1-1.6,0.2-3.2,0.4-4.7
	c-0.3-12.3,2.9-23.9,7.3-35.2c0.3-2.1,1.1-4,2.4-5.7c0.1-0.2,0.1-0.3,0.2-0.5c0.2-0.3,0.3-0.7,0.6-1c3.3-8.6,7.9-16.7,13.5-24
	c2.8-3.6,5.8-7.1,9.1-10.3c9.9,8.9,20.7,16.7,32.4,23.2c0.7,0.9,1.7,1.6,2.8,2l-0.2,0.1c19.6,11.4,41.3,19,63.7,22.3
	C547.3,222.2,547.1,223.2,547,224.2L547,224.2z M549.1,207.9c0,0.3,0,0.6-0.1,0.9c-11.3-1.8-22.3-4.7-33-8.8c-0.3-0.4-0.6-0.8-1-1.2
	c0.1-0.1,0.2-0.2,0.3-0.3l-1.5-0.6c-0.6-0.4-1.3-0.6-2-0.7c-19.6-7.3-37.6-18.2-53.2-32.1c2.8-2.1,5.6-3.9,8.6-5.6
	c4.7-4.7,10-8.7,16-11.7c1.2-2.3,3.3-4.1,5.9-4.9c5-1.7,9.8-3.8,14.8-5.5c0.5-0.2,0.9-0.3,1.4-0.3c1.8-0.5,3.6-0.8,5.4-0.8
	c1.6-0.3,3.2-0.5,4.8-0.6c4.4-2.8,10.1-3.1,15.1-3.8c0.4-0.1,0.8,0,1.1,0.1c1-0.3,2.1,0,2.8,0.8c5.3,5.6,8.7,12.7,9.7,20.3
	c0.1,0.7,0,1.3-0.4,1.9c2,5.3,3.3,10.8,4.1,16.4C549.6,183.5,550,195.7,549.1,207.9L549.1,207.9z"/>
<path class="st2" d="M446.9,197.8c-2.1,0.7-3.7,2.4-4.2,4.6c0-0.1,0-0.1-0.1-0.2c-9.6,21.2-15,44-15.9,67.2
	c-0.5,1.4-0.6,2.9-0.1,4.3l0,0l0,0v0c1.1,3.4,4.7,5.2,8.1,4.1c1.8-0.6,3.2-1.9,3.9-3.5l0.4,0.2c0-0.6,0-1.1,0.1-1.6
	c0.1-0.7,0.2-1.4,0.1-2.1c0.9-22.1,6.1-43.9,15.4-64c1.7-3.1,0.5-7-2.6-8.8C450.4,197.4,448.6,197.3,446.9,197.8L446.9,197.8z"/>
<path class="st2" d="M492.6,155.5c-4.9,0-9,4-9,9s4,9,9,9c4.9,0,9-4,9-9c0,0,0,0,0,0C501.6,159.5,497.6,155.5,492.6,155.5z"/>
<text id="Meal_for_us_1_" transform="matrix(1 0 0 1 601.1925 317.8673)" class="st1 st3 st4">Meal for us</text>
<g>
	<g class="st0">
		<path class="st1" d="M1103.5,428.9c6,0,11.1,1.1,15.5,3.3c4.4,2.2,7.8,5.3,10.3,9.3c2.5,4,3.7,8.8,3.7,14.3
			c0,5.5-1.2,10.3-3.7,14.3c-2.5,4-5.9,7.1-10.3,9.3c-4.4,2.2-9.6,3.3-15.5,3.3h-20.4v34.4h-10.7v-88H1103.5z M1101.9,472.5
			c6.9,0,12-1.4,15.2-4.3c3.2-2.9,4.8-7,4.8-12.5c0-5.5-1.6-9.7-4.8-12.5c-3.2-2.8-8.3-4.3-15.2-4.3h-18.8v33.6H1101.9z"/>
	</g>
</g>
<g>
	<g class="st0">
		<path class="st1" d="M1178.2,448.9c6.3,0,11.9,1.4,16.7,4.1c4.8,2.8,8.6,6.7,11.4,11.9c2.8,5.2,4.1,11.4,4.1,18.6
			c0,7.2-1.4,13.4-4.1,18.6c-2.8,5.2-6.6,9.2-11.4,11.9c-4.8,2.8-10.4,4.1-16.7,4.1c-6.2,0-11.8-1.4-16.7-4.1
			c-4.9-2.8-8.7-6.7-11.5-11.9c-2.8-5.2-4.1-11.4-4.1-18.6c0-7.2,1.4-13.4,4.1-18.6c2.8-5.2,6.6-9.2,11.5-11.9
			C1166.4,450.3,1172,448.9,1178.2,448.9z M1178.2,458.1c-4.5,0-8.4,1-11.6,3.1c-3.2,2-5.7,5-7.4,8.7c-1.7,3.8-2.6,8.3-2.6,13.7
			c0,5.2,0.9,9.8,2.6,13.6c1.7,3.8,4.2,6.8,7.4,8.8c3.2,2,7.1,3.1,11.6,3.1s8.4-1,11.6-3.1c3.2-2,5.7-5,7.4-8.8
			c1.7-3.8,2.6-8.4,2.6-13.6c0-5.3-0.9-9.9-2.6-13.7c-1.7-3.8-4.2-6.7-7.4-8.7C1186.6,459.1,1182.7,458.1,1178.2,458.1z"/>
	</g>
</g>
<g>
	<g class="st0">
		<path class="st1" d="M1231.7,516.9v-66.7h8.7l1.5,10.9c1.9-4.1,4.6-7.2,8.2-9.2c3.6-2,8-3.1,13.1-3.1c1.2,0,2.4,0.1,3.8,0.3
			c1.4,0.2,2.6,0.5,3.5,1.1l-1.9,9.7c-1-0.4-2-0.6-3.2-0.8c-1.2-0.2-2.8-0.3-4.9-0.3c-2.8,0-5.5,0.8-8.3,2.4c-2.8,1.6-5.1,4-7,7.3
			c-1.9,3.2-2.8,7.4-2.8,12.3v36H1231.7z"/>
	</g>
</g>
<g>
	<g class="st0">
		<path class="st1" d="M1352.6,518.3c-4.3,0-8.3-0.8-12.1-2.4c-3.8-1.6-6.8-4.2-9.2-7.8c-2.4-3.6-3.5-8.3-3.5-14.1v-43.7h10.7v40.9
			c0,6.8,1.5,11.4,4.4,13.9s7.1,3.8,12.4,3.8c2.5,0,4.9-0.4,7.3-1.3c2.4-0.8,4.6-2.2,6.5-4c1.9-1.8,3.4-4.2,4.5-7
			c1.1-2.8,1.7-6.2,1.7-10.1v-36.3h10.7v66.7h-9.3l-0.7-10.1c-2.3,4-5.4,6.9-9.4,8.7C1362.6,517.3,1357.9,518.3,1352.6,518.3z"/>
		<path class="st1" d="M1410.7,516.9v-66.7h9.3l0.9,14.9l-1.7-1.5c1.4-3.6,3.3-6.4,5.7-8.6c2.4-2.2,5.2-3.8,8.3-4.7
			c3.2-1,6.4-1.5,9.8-1.5c4.8,0,9.2,0.9,13.1,2.7c3.9,1.8,7,4.6,9.4,8.3c2.4,3.7,3.5,8.5,3.5,14.3v42.7h-10.7V478
			c0-7.4-1.6-12.5-4.7-15.4c-3.2-2.9-7-4.3-11.7-4.3c-3.2,0-6.4,0.8-9.6,2.3c-3.2,1.5-5.8,4-7.9,7.3c-2.1,3.4-3.1,7.9-3.1,13.6v35.5
			H1410.7z"/>
	</g>
</g>
<g>
	<g class="st0">
		<path class="st1" d="M1532.5,473.9c0-5-1.3-8.8-4-11.5c-2.7-2.7-6.4-4.1-11.3-4.1c-4.6,0-8.5,1-11.7,3c-3.2,2-5.6,5.2-7.1,9.7
			l-8.7-5.3c1.8-5,5.1-9,9.9-12.1s10.8-4.6,17.9-4.6c4.8,0,9.2,0.8,13.1,2.5c3.9,1.6,7,4.1,9.3,7.5s3.4,7.6,3.4,12.9V504
			c0,3.2,1.7,4.8,5.1,4.8c1.7,0,3.3-0.2,4.9-0.7l-0.5,8.4c-1.8,0.9-4.1,1.3-6.9,1.3c-2.6,0-4.9-0.5-6.9-1.5c-2-1-3.6-2.5-4.8-4.5
			c-1.2-2-1.7-4.5-1.7-7.5v-1.3l2.7,0.4c-1.1,3.5-2.9,6.3-5.5,8.5c-2.6,2.2-5.5,3.8-8.7,4.8c-3.2,1-6.4,1.5-9.5,1.5
			c-3.9,0-7.6-0.7-10.9-2c-3.4-1.3-6.1-3.4-8.1-6.1c-2-2.7-3-6.1-3-10.1c0-5,1.7-9.1,5-12.3c3.3-3.2,8-5.4,13.9-6.6l26.4-5.2v8.8
			l-21.5,4.4c-4.4,0.9-7.6,2.1-9.7,3.7c-2.1,1.6-3.2,3.8-3.2,6.7c0,2.8,1.1,5,3.3,6.7c2.2,1.7,5.3,2.6,9.3,2.6c2.6,0,5-0.3,7.4-1
			c2.4-0.7,4.5-1.7,6.3-3.1c1.9-1.4,3.3-3.1,4.4-5.2c1.1-2.1,1.6-4.6,1.6-7.4V473.9z"/>
	</g>
</g>
<g>
</g>
<g>
	<g class="st0">
		<path class="st1" d="M1652.2,450.3h11.2l-27.7,66.7H1625l-27.7-66.7h12.1l21.1,55.9L1652.2,450.3z"/>
		<path class="st1" d="M1682.7,437.5c-2.4,0-4.3-0.7-5.8-2.2c-1.5-1.5-2.2-3.4-2.2-5.8c0-2.4,0.7-4.3,2.2-5.8s3.4-2.2,5.8-2.2
			c2.4,0,4.3,0.7,5.8,2.2s2.2,3.4,2.2,5.8c0,2.4-0.7,4.3-2.2,5.8C1687,436.7,1685.1,437.5,1682.7,437.5z M1688,450.3v66.7h-10.7
			v-66.7H1688z"/>
		<path class="st1" d="M1738.8,518.3c-5.5,0-10.6-1.4-15.2-4.1c-4.6-2.8-8.3-6.7-11.1-11.9c-2.8-5.2-4.1-11.4-4.1-18.6
			c0-7.4,1.5-13.6,4.4-18.8c2.9-5.2,6.8-9.1,11.6-11.8c4.8-2.7,10-4.1,15.5-4.1c5.5,0,10.3,1.4,14.3,4.3c4,2.8,6.7,6.6,8.1,11.3
			l-1.3,0.9v-45.9h10.7v97.3h-9.3l-0.9-16.1l1.5-0.8c-0.6,3.9-2.1,7.2-4.5,9.9c-2.4,2.7-5.2,4.8-8.7,6.2
			C1746.3,517.5,1742.7,518.3,1738.8,518.3z M1739.9,508.9c4.3,0,8-1.1,11.1-3.2c3.2-2.1,5.6-5.2,7.3-9.1c1.7-4,2.6-8.6,2.6-13.9
			c0-5.1-0.9-9.4-2.6-13.1c-1.7-3.6-4.1-6.4-7.2-8.4c-3.1-2-6.6-2.9-10.7-2.9c-6.8,0-12,2.3-15.7,6.9c-3.7,4.6-5.6,10.8-5.6,18.4
			c0,7.6,1.8,13.8,5.5,18.4C1728.2,506.6,1733.3,508.9,1739.9,508.9z"/>
	</g>
</g>
<g>
	<g class="st0">
		<path class="st1" d="M1835.8,473.9c0-5-1.3-8.8-4-11.5c-2.7-2.7-6.4-4.1-11.3-4.1c-4.6,0-8.5,1-11.7,3c-3.2,2-5.6,5.2-7.1,9.7
			l-8.7-5.3c1.8-5,5.1-9,9.9-12.1s10.8-4.6,17.9-4.6c4.8,0,9.2,0.8,13.1,2.5c3.9,1.6,7,4.1,9.3,7.5s3.4,7.6,3.4,12.9V504
			c0,3.2,1.7,4.8,5.1,4.8c1.7,0,3.3-0.2,4.9-0.7l-0.5,8.4c-1.8,0.9-4.1,1.3-6.9,1.3c-2.6,0-4.9-0.5-6.9-1.5c-2-1-3.6-2.5-4.8-4.5
			c-1.2-2-1.7-4.5-1.7-7.5v-1.3l2.7,0.4c-1.1,3.5-2.9,6.3-5.5,8.5c-2.6,2.2-5.5,3.8-8.7,4.8c-3.2,1-6.4,1.5-9.5,1.5
			c-3.9,0-7.6-0.7-10.9-2c-3.4-1.3-6.1-3.4-8.1-6.1c-2-2.7-3-6.1-3-10.1c0-5,1.7-9.1,5-12.3c3.3-3.2,8-5.4,13.9-6.6l26.4-5.2v8.8
			l-21.5,4.4c-4.4,0.9-7.6,2.1-9.7,3.7c-2.1,1.6-3.2,3.8-3.2,6.7c0,2.8,1.1,5,3.3,6.7c2.2,1.7,5.3,2.6,9.3,2.6c2.6,0,5-0.3,7.4-1
			c2.4-0.7,4.5-1.7,6.3-3.1c1.9-1.4,3.3-3.1,4.4-5.2c1.1-2.1,1.6-4.6,1.6-7.4V473.9z"/>
	</g>
</g>
<g>
	<g class="st0">
		<path class="st1" d="M1914.7,516.9v-66.7h9.3l0.7,10.4c2.4-4.1,5.5-7.1,9.4-8.9c3.9-1.9,7.8-2.8,11.9-2.8c4.7,0,9.2,1.1,13.3,3.2
			c4.2,2.1,7.4,5.4,9.6,9.9c1.4-3,3.4-5.5,6-7.4c2.6-1.9,5.4-3.3,8.5-4.3c3.1-0.9,6-1.4,8.7-1.4c4.3,0,8.3,0.9,12.2,2.7
			c3.9,1.8,7,4.5,9.5,8.3c2.5,3.7,3.7,8.5,3.7,14.4v42.7H2007v-41.6c0-6-1.5-10.4-4.5-13.1c-3-2.7-6.8-4-11.2-4
			c-3.5,0-6.7,0.8-9.7,2.5c-3,1.7-5.4,4.2-7.3,7.5c-1.8,3.3-2.7,7.3-2.7,12.1v36.5h-10.7v-41.6c0-6-1.5-10.4-4.5-13.1
			c-3-2.7-6.8-4-11.2-4c-2.9,0-5.9,0.8-9,2.3c-3.1,1.6-5.6,4-7.7,7.4c-2,3.4-3.1,7.8-3.1,13.3v35.6H1914.7z"/>
		<path class="st1" d="M2069.6,518.3c-6.3,0-11.9-1.4-16.9-4.1c-4.9-2.8-8.8-6.7-11.5-11.9c-2.8-5.2-4.1-11.4-4.1-18.6
			c0-7.2,1.4-13.4,4.1-18.6c2.8-5.2,6.5-9.2,11.3-11.9c4.8-2.8,10.3-4.1,16.4-4.1c6.2,0,11.5,1.3,15.9,4c4.4,2.7,7.8,6.3,10.1,10.9
			c2.3,4.6,3.5,9.7,3.5,15.4c0,1.5,0,2.9-0.1,4.1c-0.1,1.2-0.2,2.4-0.4,3.3H2044v-9.5h49.2l-5.5,1.1c0-6.4-1.8-11.3-5.3-14.8
			c-3.5-3.5-8.1-5.2-13.8-5.2c-4.4,0-8.1,1-11.3,3c-3.2,2-5.6,4.9-7.3,8.7c-1.7,3.8-2.6,8.3-2.6,13.7c0,5.2,0.9,9.8,2.7,13.6
			c1.8,3.8,4.3,6.7,7.5,8.7c3.2,2,7.1,3,11.7,3c4.9,0,8.9-0.9,11.9-2.8s5.5-4.4,7.4-7.6l8.4,4.9c-1.7,3-3.8,5.6-6.5,7.9
			c-2.6,2.2-5.7,3.9-9.2,5.1C2077.9,517.7,2074,518.3,2069.6,518.3z"/>
		<path class="st1" d="M2129.4,450.3v73.5c0,5.5-1.1,9.9-3.2,13.1s-4.8,5.5-7.9,6.8s-6.2,2-9.2,2c-2.8,0-5.3-0.4-7.6-1.3
			c-2.3-0.8-4.2-1.9-5.7-3.1l2.3-10.1c1.2,1.2,2.8,2.1,4.7,2.9c1.9,0.8,4,1.2,6.3,1.2c2.8,0,5.2-0.9,7-2.8c1.8-1.9,2.7-5.1,2.7-9.7
			v-72.4H2129.4z M2124,437.5c-2.4,0-4.3-0.7-5.8-2.2c-1.5-1.5-2.2-3.4-2.2-5.8c0-2.4,0.7-4.3,2.2-5.8s3.4-2.2,5.8-2.2
			c2.4,0,4.3,0.7,5.8,2.2s2.2,3.4,2.2,5.8c0,2.4-0.7,4.3-2.2,5.8C2128.4,436.7,2126.4,437.5,2124,437.5z"/>
		<path class="st1" d="M2181.8,448.9c6.3,0,11.9,1.4,16.7,4.1c4.8,2.8,8.6,6.7,11.4,11.9c2.8,5.2,4.1,11.4,4.1,18.6
			c0,7.2-1.4,13.4-4.1,18.6c-2.8,5.2-6.6,9.2-11.4,11.9c-4.8,2.8-10.4,4.1-16.7,4.1c-6.2,0-11.8-1.4-16.7-4.1
			c-4.9-2.8-8.7-6.7-11.5-11.9c-2.8-5.2-4.1-11.4-4.1-18.6c0-7.2,1.4-13.4,4.1-18.6c2.8-5.2,6.6-9.2,11.5-11.9
			C2170,450.3,2175.6,448.9,2181.8,448.9z M2181.8,458.1c-4.5,0-8.4,1-11.6,3.1c-3.2,2-5.7,5-7.4,8.7c-1.7,3.8-2.6,8.3-2.6,13.7
			c0,5.2,0.9,9.8,2.6,13.6c1.7,3.8,4.2,6.8,7.4,8.8c3.2,2,7.1,3.1,11.6,3.1s8.4-1,11.6-3.1c3.2-2,5.7-5,7.4-8.8
			c1.7-3.8,2.6-8.4,2.6-13.6c0-5.3-0.9-9.9-2.6-13.7c-1.7-3.8-4.2-6.7-7.4-8.7C2190.2,459.1,2186.3,458.1,2181.8,458.1z"/>
	</g>
</g>
<g>
	<g class="st0">
		<path class="st1" d="M2235.8,516.9v-66.7h8.7l1.5,10.9c1.9-4.1,4.6-7.2,8.2-9.2c3.6-2,8-3.1,13.1-3.1c1.2,0,2.4,0.1,3.8,0.3
			c1.4,0.2,2.6,0.5,3.5,1.1l-1.9,9.7c-1-0.4-2-0.6-3.2-0.8c-1.2-0.2-2.8-0.3-4.9-0.3c-2.8,0-5.5,0.8-8.3,2.4s-5.1,4-7,7.3
			c-1.9,3.2-2.8,7.4-2.8,12.3v36H2235.8z"/>
	</g>
</g>
</svg>
