<svg width="39" height="34" xmlns="http://www.w3.org/2000/svg" xmlns:xlink="http://www.w3.org/1999/xlink" overflow="hidden"><defs><clipPath id="clip0"><rect x="490" y="306" width="39" height="34"/></clipPath></defs><g clip-path="url(#clip0)" transform="translate(-490 -306)"><path d="M509.5 310 505.43 310.796 503.003 325.696 505.43 339 513.649 339 516 326.014 513.649 310.796 509.5 310Z" fill="#5D2912" fill-rule="evenodd"/><path d="M505 311 492.003 313.531 492.003 335.52C492.003 337.416 493.568 339 495.37 339L505 339 505 311Z" fill="#ED8388" fill-rule="evenodd"/><path d="M505 311 492.003 313.61 492.003 335.52C492.003 337.416 493.568 338.997 495.37 338.997L498.5 338.997C496.702 338.92 495.133 337.416 495.133 335.52L495.133 313.61 505 311.634 505 311Z" fill="#D2B358" fill-rule="evenodd"/><path d="M514 311 514 339 523.554 339C525.432 339 527 337.416 527 335.52L527 313.531 514 311Z" fill="#ED8388" fill-rule="evenodd"/><path d="M505.49 307 503.003 310.54 505.49 313.997 513.911 313.997 516 311.774 513.911 307Z" fill="#916D5E" fill-rule="evenodd"/><path d="M492.304 307.003C491.613 307.003 491.003 307.663 491.003 308.403L491.003 312.68C491.003 313.423 491.613 313.997 492.304 313.997L505 313.997 505 307.003Z" fill="#FBE193" fill-rule="evenodd"/><path d="M492.195 307C491.562 307 491.003 307.66 491.003 308.4L491.003 312.68C491.003 313.423 491.562 313.997 492.195 313.997L494.997 313.997C494.367 313.997 493.805 313.423 493.805 312.68L493.805 308.4C493.805 307.66 494.367 307 494.997 307Z" fill="#FAD569" fill-rule="evenodd"/><path d="M514 307 514 313.997 526.77 313.997C527.461 313.997 528 313.429 528 312.695L528 308.466C528 307.734 527.461 307.082 526.77 307Z" fill="#FBE193" fill-rule="evenodd"/></g></svg>