<svg width="41" height="40" xmlns="http://www.w3.org/2000/svg" xmlns:xlink="http://www.w3.org/1999/xlink" overflow="hidden"><defs><clipPath id="clip0"><rect x="361" y="302" width="41" height="40"/></clipPath></defs><g clip-path="url(#clip0)" transform="translate(-361 -302)"><path d="M378.484 313.003C373.574 313.003 371 317.929 371.804 321.658L373.162 323.19 373.798 323.997 374.278 323.19 388.964 323.19 389.523 323.675 389.842 323.19 391.199 321.658C391.997 318.427 391.517 316.247 391.119 315.037 391.001 314.681 390.673 314.458 390.348 314.458 390.227 314.458 390.11 314.488 390.003 314.553 389.557 314.725 388.813 314.898 387.73 314.898 386.299 314.898 384.268 314.597 381.54 313.583 380.441 313.183 379.419 313.003 378.484 313.003Z" fill="#5ECA83" fill-rule="evenodd"/><path d="M389 323 389.637 324 390 323Z" fill="#C06A3C" fill-rule="evenodd"/><path d="M378.135 313C373.418 313 371 317.6 371.723 321L373.331 320.55C372.871 317.398 374.939 313.501 378.997 313.05 378.701 313.019 378.415 313 378.135 313Z" fill="#C06A3C" fill-rule="evenodd"/><path d="M382.49 307.142C389.608 307.776 395.304 313.393 395.855 320.512L394.274 320.512C393.643 320.512 393.168 320.987 393.168 321.618 393.168 322.173 393.643 322.648 394.274 322.648L395.855 322.648C395.304 329.766 389.687 335.542 382.49 336.014L382.49 334.433C382.49 333.878 382.015 333.327 381.38 333.327 380.829 333.327 380.274 333.878 380.274 334.433L380.274 336.014C373.157 335.463 367.46 329.766 366.985 322.648L368.566 322.648C369.121 322.648 369.596 322.173 369.596 321.618 369.596 320.987 369.121 320.512 368.566 320.512L366.985 320.512C367.54 313.393 373.157 307.617 380.274 307.142L380.274 308.726C380.274 309.358 380.829 309.833 381.38 309.833 382.015 309.833 382.49 309.358 382.49 308.726L382.49 307.142ZM381.46 302C380.909 302 380.434 302.475 380.434 303.109L380.434 304.77C376.319 305.086 372.602 306.747 369.596 309.593 366.75 312.523 365.009 316.32 364.77 320.432L363.109 320.432C362.478 320.432 362.003 320.907 362.003 321.462 362.003 322.093 362.478 322.568 363.109 322.568L364.77 322.568C365.089 326.604 366.75 330.4 369.596 333.327 372.522 336.253 376.319 337.994 380.434 338.23L380.434 339.891C380.434 340.445 380.909 341 381.46 341 382.095 341 382.569 340.445 382.569 339.891L382.569 338.23C386.602 337.914 390.398 336.253 393.324 333.327 396.254 330.477 397.991 326.604 398.23 322.568L399.891 322.568C400.445 322.568 400.997 322.093 400.997 321.462 400.997 320.907 400.445 320.432 399.891 320.432L398.23 320.432C397.914 316.32 396.254 312.6 393.324 309.593 390.478 306.747 386.602 305.006 382.569 304.77L382.569 303.109C382.569 302.475 382.095 302 381.46 302Z" fill="#ED844A" fill-rule="evenodd"/><path d="M374.548 318 374.548 318C375.103 322.644 373.602 323.164 372.9 323.164 372.696 323.164 372.558 323.121 372.558 323.121L372 323.987 372.876 325.089C373.832 328.476 377.019 330.997 380.918 330.997 384.82 330.997 388.007 328.555 388.963 325.089L389.997 324.222 389.281 323.121C389.281 323.121 389.144 323.164 388.94 323.164 388.238 323.164 386.733 322.644 387.291 318L387.291 318C387.288 318 384.503 318.473 380.918 318.473 377.337 318.473 374.548 318 374.548 318Z" fill="#FED3BC" fill-rule="evenodd"/><path d="M377.466 322C377.198 322 377 322.263 377 322.609L377 323.391C377 323.741 377.198 324 377.466 324 377.732 324 377.997 323.741 377.997 323.391L377.997 322.609C377.997 322.263 377.732 322 377.466 322Z" fill="#281208" fill-rule="evenodd"/><path d="M385.534 322C385.265 322 385 322.263 385 322.609L385 323.391C385 323.741 385.265 324 385.534 324 385.732 324 385.997 323.741 385.997 323.391L385.997 322.609C385.997 322.263 385.732 322 385.534 322Z" fill="#281208" fill-rule="evenodd"/><path d="M379.708 323C379.555 323 379.391 323.036 379.268 323.101 379.004 323.196 379.004 323.433 379.179 323.573 379.623 323.81 380.335 324 380.953 324 381.665 324 382.288 323.857 382.732 323.573 382.996 323.433 382.821 323.196 382.642 323.101 382.545 323.05 382.422 323.03 382.299 323.03 382.087 323.03 381.867 323.089 381.755 323.149 381.486 323.29 381.311 323.337 380.953 323.337 380.599 323.337 380.424 323.29 380.156 323.149 380.062 323.048 379.891 323 379.708 323Z" fill="#281208" fill-rule="evenodd"/><path d="M373.002 321.003C371.849 321.003 371.003 321.869 371.003 323.049 371.003 324.229 371.849 325.095 373.002 325.095L373.309 325.095C374.155 328.479 377.309 330.917 381 330.997 378 330.052 375.617 327.613 374.771 324.543 374.539 323.835 374.461 323.128 374.461 322.421 374.022 322.983 373.467 323.062 373.183 323.062 373.07 323.062 373.002 323.049 373.002 323.049 373.002 322.342 373.079 321.711 373.309 321.003Z" fill="#FDBF9C" fill-rule="evenodd"/><path d="M389.004 321.003C389.302 321.694 389.402 322.31 389.402 323 389.402 323.69 389.302 324.384 389.004 324.997L389.402 324.997C390.898 324.997 391.996 324.152 391.996 323 391.996 321.848 390.797 321.003 389.402 321.003Z" fill="#FDBF9C" fill-rule="evenodd"/></g></svg>