<svg width="42" height="30" xmlns="http://www.w3.org/2000/svg" xmlns:xlink="http://www.w3.org/1999/xlink" overflow="hidden"><defs><clipPath id="clip0"><rect x="423" y="186" width="42" height="30"/></clipPath></defs><g clip-path="url(#clip0)" transform="translate(-423 -186)"><path d="M457.117 186.003C456.873 186.003 456.626 186.027 456.375 186.075L427.458 191.344C425.336 191.749 424.003 193.774 424.396 195.881L427.144 211.77C427.494 213.638 429.078 215 430.86 215 431.084 215 431.315 214.976 431.546 214.932L460.539 209.663C462.585 209.258 463.997 207.229 463.604 205.122L460.856 189.155C460.509 187.293 458.939 186.003 457.117 186.003Z" fill="#A4E1D4" fill-rule="evenodd"/><path d="M457.117 186.003C456.873 186.003 456.626 186.027 456.375 186.075L427.458 191.344C425.336 191.749 424.003 193.774 424.396 195.881L427.144 211.77C427.494 213.638 429.078 215 430.86 215 431.084 215 431.315 214.976 431.546 214.932L460.539 209.663C462.585 209.258 463.997 207.229 463.604 205.122L460.856 189.155C460.509 187.293 458.939 186.003 457.117 186.003Z" fill="#A4E1D4" fill-rule="evenodd"/><path d="M457.117 186.003C456.873 186.003 456.626 186.027 456.375 186.075L427.458 191.344C425.336 191.749 424.003 193.774 424.396 195.881L427.144 211.77C427.494 213.638 429.078 215 430.86 215 431.084 215 431.315 214.976 431.546 214.932L460.539 209.663C462.585 209.258 463.997 207.229 463.604 205.122L460.856 189.155C460.509 187.293 458.939 186.003 457.117 186.003Z" fill="#B1E6DA" fill-rule="evenodd"/><path d="M461.004 189.003C461.004 189.242 461.178 189.404 461.262 189.643 461.178 189.404 461.178 189.242 461.004 189.003ZM463 208.957 463 208.957C462.479 209.357 461.871 209.758 461.178 210 461.871 209.758 462.566 209.438 463 208.957Z" fill="#E0F5F0" fill-rule="evenodd"/><path d="M425.773 192.477 425.773 192.477C425.39 192.729 425.068 193.054 424.806 193.433L424.806 193.433C425.061 193.081 425.404 192.752 425.773 192.477ZM424.806 193.433 424.806 193.433C424.695 193.584 424.604 193.741 424.531 193.899L424.531 193.899C424.611 193.738 424.705 193.58 424.806 193.433ZM460.319 188.003 449.764 198.785 451.682 199.982 461.199 190.16 461.122 189.761C461.122 189.6 460.961 189.362 460.88 189.201L460.88 189.043C460.722 188.563 460.481 188.241 460.319 188.003ZM464 206.532 464 206.532C463.6 206.613 463.12 206.77 462.721 206.77L463.758 207.411C463.715 207.565 463.661 207.716 463.597 207.863L463.597 207.863C463.829 207.434 463.956 206.995 464 206.532ZM463.597 207.863C463.389 208.249 463.1 208.628 462.721 209.007 462.203 209.45 461.686 209.758 461.105 209.99L461.105 209.99C462.267 209.668 463.144 208.913 463.597 207.863ZM461.105 209.99C461.031 210.01 460.957 210.03 460.88 210.047L460.961 210.047C461.008 210.027 461.058 210.01 461.105 209.99ZM424.531 193.899C424.165 194.63 424.003 195.495 424.091 196.387L426.891 212.042C427.21 213.561 428.332 214.759 429.692 214.997 428.89 214.839 428.171 214.359 427.691 213.719L437.927 200.861 424.413 194.231C424.44 194.12 424.48 194.01 424.531 193.899Z" fill="#B1E6DA" fill-rule="evenodd"/><path d="M449.466 198.003 445.812 202.15C445.345 202.648 444.643 202.979 443.944 202.979 443.555 202.979 443.167 202.811 442.778 202.648L438.033 200.159 428 213.506C428.467 214.255 429.166 214.669 429.946 214.833 430.257 215 430.567 215 430.799 215 431.034 215 431.191 215 431.501 214.833L460.198 209.444C461.521 209.196 462.611 208.117 463 206.791L461.909 206.046C458.875 206.544 455.998 206.958 453.278 206.958 450.943 206.958 448.689 206.707 446.589 205.962 446.122 205.715 445.887 205.05 446.279 204.636L451.256 199.083 449.466 198.003Z" fill="#8C6757" fill-rule="evenodd"/><path d="M459 187 460 187.96 460 187.96 459 187Z" fill="#BBE9DF" fill-rule="evenodd"/><path d="M458.02 186 458.98 187 458.02 186Z" fill="#BBE9DF" fill-rule="evenodd"/><path d="M456.98 186 456.02 187 456.02 187 456.98 186Z" fill="#BBE9DF" fill-rule="evenodd"/><path d="M459.02 187.04 459.98 187.96 459.02 187.04Z" fill="#BBE9DF" fill-rule="evenodd"/><path d="M460 187.04 461 188 460 187.04Z" fill="#BBE9DF" fill-rule="evenodd"/><path d="M460.02 187 460.98 188 460.02 187Z" fill="#BBE9DF" fill-rule="evenodd"/><path d="M460 187.014 460.986 188 460.986 188 460 187.014Z" fill="#BBE9DF" fill-rule="evenodd"/><path d="M459 187 460 188 459 187Z" fill="#BBE9DF" fill-rule="evenodd"/><path d="M459.014 187 459.986 187.96 459.014 187Z" fill="#BBE9DF" fill-rule="evenodd"/><path d="M458 187.04 459 187.96 458 187.04Z" fill="#BBE9DF" fill-rule="evenodd"/><path d="M447.39 197.003 440.159 198.275 428 213.461C428.704 214.449 429.912 215 431.173 215 431.333 215 431.494 214.99 431.657 214.973L460.977 209.805C462.488 209.484 463.6 208.533 463.997 207.18L447.39 197.003Z" fill="#66CDB6" fill-rule="evenodd"/><path d="M456.91 186C456.739 186 456.571 186.01 456.399 186.03L426.882 191.231C425.444 191.473 424.403 192.43 424.003 193.63L442.48 202.674C442.917 202.889 443.377 203 443.82 203 444.522 203 445.191 202.731 445.681 202.194L459.997 187.391C459.16 186.48 458.075 186 456.91 186Z" fill="#D2F0EA" fill-rule="evenodd"/></g></svg>