<svg width="41" height="41" xmlns="http://www.w3.org/2000/svg" xmlns:xlink="http://www.w3.org/1999/xlink" overflow="hidden"><defs><clipPath id="clip0"><rect x="226" y="179" width="41" height="41"/></clipPath></defs><g clip-path="url(#clip0)" transform="translate(-226 -179)"><path d="M246 201 233.029 202.932 229 210.976 246 215 263 210.976 258.971 202.932 246 201Z" fill="#896352" fill-rule="evenodd"/><path d="M245.808 201 232.965 202.862 229.003 210.954 245.808 214.997 247 214.755 231.38 210.954 235.345 202.862 247 201.163 245.808 201Z" fill="#5D2912" fill-rule="evenodd"/><path d="M246.039 185.003 241 187.028 237 195.132 246.039 196.997 255 195.132 251 187.028 246.039 185.003Z" fill="#5ECA83" fill-rule="evenodd"/><path d="M245.826 185.003 240.906 187.028 237 195.132 245.826 196.997 246.997 196.755 239.345 195.132 243.248 187.028 246.997 185.49 245.826 185.003Z" fill="#D47642" fill-rule="evenodd"/><path d="M246.071 179.003C245.516 179.003 244.954 179.302 244.629 179.898L241.003 187 251 187 247.452 179.898C247.171 179.302 246.626 179.003 246.071 179.003Z" fill="#C76F3E" fill-rule="evenodd"/><path d="M245.828 179C245.296 179 244.76 179.283 244.46 179.859L241.003 187 243.308 187 246.768 179.859C246.768 179.781 246.923 179.62 246.997 179.539 246.69 179.182 246.261 179 245.828 179Z" fill="#883236" fill-rule="evenodd"/><path d="M229.385 211.003 226.473 216.757C226 217.798 226.711 218.997 227.891 218.997L264.106 218.997C265.21 218.997 265.997 217.798 265.524 216.757L262.691 211.003Z" fill="#5D2912" fill-rule="evenodd"/><path d="M229.533 211 226.493 216.679C226 217.64 226.742 219 227.974 219L230.437 219C229.205 218.839 228.467 217.64 228.96 216.679L232 211Z" fill="#5D2912" fill-rule="evenodd"/><path d="M237.013 195 233 203 258.997 203 254.987 195Z" fill="#FBE193" fill-rule="evenodd"/><path d="M237.374 195 233 203 235.626 203 240 195Z" fill="#FAD569" fill-rule="evenodd"/></g></svg>