<svg width="41" height="41" xmlns="http://www.w3.org/2000/svg" xmlns:xlink="http://www.w3.org/1999/xlink" overflow="hidden"><defs><clipPath id="clip0"><rect x="556" y="240" width="41" height="41"/></clipPath></defs><g clip-path="url(#clip0)" transform="translate(-556 -240)"><path d="M586.215 245.255C587.634 245.255 589.05 245.797 590.17 246.879 592.404 249.125 592.404 252.656 590.17 254.822L582.74 262.28C581.66 263.364 580.244 263.907 578.825 263.907 577.406 263.907 575.99 263.364 574.91 262.28 572.673 260.036 572.673 256.506 574.91 254.34L582.26 246.879C583.377 245.797 584.796 245.255 586.215 245.255ZM586.145 240C583.397 240 580.663 241.064 578.587 243.19L571.156 250.571C567 254.822 567 261.64 571.156 265.81 573.273 267.936 576.031 269 578.785 269 581.542 269 584.296 267.936 586.413 265.81L593.763 258.429C598 254.259 598 247.36 593.763 243.19 591.646 241.064 588.892 240 586.145 240Z" fill="#A4E1D4" fill-rule="evenodd"/><path d="M571 251 571 251C570.199 251.539 569.499 252.229 569 253 569.499 252.306 570.199 251.616 571 251Z" fill="#E2D8D4" fill-rule="evenodd"/><path d="M572.714 249 570.751 250.975C570.121 251.529 569.57 252.239 569.178 253.033 570.042 252.558 570.906 252.163 571.929 251.844 572.084 250.739 572.401 249.79 572.714 249ZM572.948 256.902C572.163 257.141 571.378 257.536 570.751 258.247L568 261.015C568.472 262.833 569.336 264.569 570.751 265.993 572.084 267.337 573.892 268.366 575.62 268.761 576.405 268.917 577.27 268.997 578.213 268.997 580.021 268.997 581.905 268.522 583.554 267.573 584.263 267.178 584.969 266.547 585.675 265.993L589.997 261.645 589.997 261.645C587.011 264.098 583.32 266.388 579.391 266.388L578.998 266.388C573.971 266.152 572.008 264.098 571.299 261.489 571.144 260.935 571.299 260.301 571.691 259.906L572.714 258.96C572.714 258.486 572.714 257.931 572.793 257.457L572.793 257.301C572.948 257.062 572.948 256.982 572.948 256.902Z" fill="#8FDAC9" fill-rule="evenodd"/><path d="M574.838 251C572.146 251 569.44 252.064 567.364 254.19L560.153 261.569C556 265.82 556 272.637 560.153 276.81 562.19 278.936 564.876 279.997 567.571 279.997 570.263 279.997 572.968 278.936 575.045 276.81L582.255 269.431C582.881 268.787 583.43 268.067 583.822 267.265L583.822 267.265C582.124 268.387 580.235 268.919 578.339 268.919 577.523 268.919 576.707 268.821 575.907 268.629L571.441 273.2C570.342 274.321 568.93 274.884 567.532 274.884 566.13 274.884 564.737 274.321 563.681 273.2 561.565 271.034 561.486 267.504 563.681 265.257L570.892 257.878C571.987 256.756 573.399 256.194 574.801 256.194 576.2 256.194 577.592 256.756 578.648 257.878 580.139 259.404 580.61 261.488 580.06 263.415 580.844 263.092 581.627 262.691 582.255 261.97L584.997 259.164C584.529 257.4 583.667 255.554 582.255 254.19 580.218 252.064 577.533 251 574.838 251Z" fill="#73D1BC" fill-rule="evenodd"/><path d="M584.919 259.004 584.919 259.004C585 259.256 585 259.427 585 259.509 585 259.341 585 259.256 584.919 259.004ZM580.081 261.119C580.244 262.051 580.162 263.068 580 264 580.162 263.068 580.322 262.051 580.081 261.119Z" fill="#E2D8D4" fill-rule="evenodd"/><path d="M584.056 257C582.953 258.269 581.539 259.934 580.123 260.966 580.357 261.838 580.202 262.711 580.043 263.583 580.829 263.344 581.615 262.947 582.246 262.235L584.997 259.461C584.997 259.301 584.921 259.141 584.921 258.985 584.683 258.269 584.369 257.636 584.056 257ZM561.564 260.33 560.068 261.838C558.024 263.9 557 266.597 557 269.371 557 272.148 558.024 274.845 560.068 276.906 562.112 278.968 564.787 279.997 567.541 279.997 570.292 279.997 572.966 278.968 575.011 276.906L582.325 269.611C582.873 268.975 583.504 268.262 583.897 267.469L583.897 267.469C582.167 268.498 580.357 268.975 578.471 268.975 577.606 268.975 576.82 268.895 575.876 268.658L574.697 269.847C575.483 270.403 576.503 270.799 577.685 270.959 575.404 273.973 571.864 277.383 567.541 277.383 567.069 277.383 566.676 277.383 566.203 277.303 558.103 276.034 558.024 266.913 561.564 260.33Z" fill="#67CDB6" fill-rule="evenodd"/></g></svg>