<svg width="41" height="41" xmlns="http://www.w3.org/2000/svg" xmlns:xlink="http://www.w3.org/1999/xlink" overflow="hidden"><defs><clipPath id="clip0"><rect x="293" y="240" width="41" height="41"/></clipPath></defs><g clip-path="url(#clip0)" transform="translate(-293 -240)"><path d="M300.187 240C296.195 240 293 243.201 293 247.202L293 272.798C293 276.799 296.195 279.997 300.187 279.997L325.732 279.997C329.725 279.997 332.997 276.799 332.997 272.798L332.997 247.202C332.997 243.201 329.725 240 325.732 240Z" fill="#E9666C" fill-rule="evenodd"/><path d="M332.997 261.163C321.217 267.789 307.91 261 293.003 269.086L293.003 272.722C293.003 276.765 296.207 279.997 300.216 279.997L325.865 279.997C329.712 279.997 332.997 276.765 332.997 272.722L332.997 261.163Z" fill="#EE8B90" fill-rule="evenodd"/><path d="M299.197 248C298.639 248 298.08 248.452 298.08 248.905L298.08 251.095C298 251.548 298.558 252 299.197 252L305.883 252C306.519 252 306.997 251.548 306.997 251.095L306.997 248.905C306.997 248.452 306.519 248 305.883 248Z" fill="#D2F0EA" fill-rule="evenodd"/><path d="M300.2 240C296.2 240 293.003 243.188 293.003 247.169L293.003 269C296.281 267.247 299.401 266.21 302.52 265.571 301.56 263.898 300.999 261.908 300.999 259.918 300.999 256.97 302.121 254.261 303.88 252.19L299.162 252.19C298.601 252.19 298.041 251.631 298.041 251.073L298.041 248.366C298.041 247.808 298.601 247.249 299.162 247.249L306.197 247.249C306.278 244.62 306.597 242.231 306.997 240Z" fill="#37A25B" fill-rule="evenodd"/><path d="M302.474 266C299.37 266.631 296.185 267.654 293.003 269.384L293.003 272.921C293.003 276.853 296.185 279.997 300.165 279.997L325.951 279.997C328.738 279.762 330.964 277.874 332 275.516 325.236 275.282 320.143 273.786 316.243 271.504 315.047 271.9 313.853 272.135 312.58 272.135 308.283 272.135 304.463 269.619 302.474 266Z" fill="#EC7A80" fill-rule="evenodd"/><path d="M299.034 247C298.479 247 298.003 247.492 298.003 248.149L298.003 250.851C298.003 251.505 298.479 251.997 299.034 251.997L303.703 251.997C304.415 251.178 305.126 250.442 305.997 249.95L305.997 247Z" fill="#BAE8DE" fill-rule="evenodd"/><path d="M313.041 248C306.415 248 301 253.396 301 260 301 266.6 306.333 271.997 313.041 271.997 319.663 271.997 324.997 266.681 324.997 260 324.997 253.396 319.663 248 313.041 248Z" fill="#F2FBF9" fill-rule="evenodd"/><path d="M313 253C308.535 253 305 256.318 305 260.5 305 264.682 308.535 267.997 313 267.997 317.376 267.997 320.996 264.682 320.996 260.5 320.996 256.394 317.376 253 313 253Z" fill="#927060" fill-rule="evenodd"/><path d="M325.958 244C324.36 244 323 245.279 323 246.958 323 248.637 324.36 249.997 325.958 249.997 327.637 249.997 328.997 248.637 328.997 246.958 328.997 245.279 327.637 244 325.958 244Z" fill="#FBE193" fill-rule="evenodd"/><path d="M320.997 259.997 320.997 259.997 320.997 259.997ZM320.997 259.997 320.997 259.997 320.997 259.997ZM320.997 259.997 320.997 259.997 320.997 259.997ZM320.997 259.853 320.997 259.853 320.997 259.853ZM320.997 259.853 320.997 259.853 320.997 259.853ZM320.997 259.853 320.997 259.853 320.997 259.853ZM320.997 259.853 320.997 259.853 320.997 259.853ZM320.997 259.784C320.997 259.784 320.997 259.853 320.997 259.784 320.997 259.853 320.997 259.784 320.997 259.784ZM320.997 259.784 320.997 259.784 320.997 259.784ZM320.997 259.784 320.997 259.784 320.997 259.784ZM320.997 259.784 320.997 259.784 320.997 259.784ZM313 253 313 253 313 253ZM313 253 313 253 313 253ZM313.081 253C313.081 253 313 253 313.081 253 313 253 313.081 253 313.081 253ZM313.081 253 313.081 253 313.081 253ZM313.081 253 313.081 253 313.081 253ZM313.163 253 313.163 253 313.163 253ZM313.163 253 313.163 253 313.163 253ZM313.326 253 313.326 253 313.326 253Z" fill="#D8CCC6" fill-rule="evenodd"/><path d="M312.905 253C311.107 253.076 309.39 253.749 308 254.877 308.735 254.726 309.473 254.726 310.207 254.726 315.278 254.726 320.591 258.325 318.954 265 320.183 263.8 321 262.223 321 260.425 320.835 256.224 317.32 253 313.07 253Z" fill="#896352" fill-rule="evenodd"/></g></svg>