<svg width="37" height="39" xmlns="http://www.w3.org/2000/svg" xmlns:xlink="http://www.w3.org/1999/xlink" overflow="hidden"><defs><clipPath id="clip0"><rect x="160" y="365" width="37" height="39"/></clipPath></defs><g clip-path="url(#clip0)" transform="translate(-160 -365)"><path d="M183 368 183 374.997 196 374.997 196 371.572 196 368Z" fill="#ED844A" fill-rule="evenodd"/><path d="M182.933 365.003C182.536 365.003 182.006 365.245 182.006 365.571L182.006 381.351C182.006 381.677 182.536 382 182.933 382 183.469 382 183.866 381.755 184 381.351L184 365.571C184 365.245 183.469 365.003 182.933 365.003Z" fill="#2F1509" fill-rule="evenodd"/><path d="M179.655 386.003 175.384 388.238 169.71 388.238C168.777 388.238 168 389.066 168 390.143L168 396.018 170.953 399 173.439 396.018 180.745 396.018 182.997 392.045 180.824 388.238 179.655 386.003Z" fill="#82D6C3" fill-rule="evenodd"/><path d="M177.692 381C176.772 381 176.003 381.744 176.003 382.713L176.003 388 188.691 388 190.997 384.724 188.691 381Z" fill="#66CDB6" fill-rule="evenodd"/><path d="M161.856 396C160.845 396 160.004 396.744 160.004 397.713L160.004 403 173.893 403 176 399.427 173.893 396Z" fill="#66CDB6" fill-rule="evenodd"/><path d="M188.77 381 188.77 388.334 181.387 388.334 181.387 395.666 174 395.666 174 402.997 194.29 402.997C195.223 402.997 196 402.225 196 401.298L196 382.932C196 381.771 195.223 381 194.29 381Z" fill="#459B88" fill-rule="evenodd"/></g></svg>