<svg width="36" height="41" xmlns="http://www.w3.org/2000/svg" xmlns:xlink="http://www.w3.org/1999/xlink" overflow="hidden"><defs><clipPath id="clip0"><rect x="294" y="363" width="36" height="41"/></clipPath></defs><g clip-path="url(#clip0)" transform="translate(-294 -363)"><path d="M304.785 395C303.009 396.271 301.003 398.813 301.003 403L323 403C323 398.813 320.994 396.271 319.296 395Z" fill="#3D1B0C" fill-rule="evenodd"/><path d="M304.552 395C303.682 395.75 302.74 396.72 302.089 398.142 301.943 398.44 301.87 398.738 301.654 399.111 301.219 400.307 301.003 401.729 301.003 403L302.451 403C302.451 398.813 304.406 396.271 306 395Z" fill="#36180A" fill-rule="evenodd"/><path d="M306.475 393.004C306.475 393.004 305.28 393.424 304.003 394.601 304.003 394.601 305.517 399.314 309.507 400.996L313.493 400.996C317.325 399.314 319 394.601 319 394.601 317.643 393.424 316.448 393.004 316.448 393.004Z" fill="#FADFE0" fill-rule="evenodd"/><path d="M307.039 393C307.039 393 306.94 393 306.648 393.183 305.665 393.545 304.884 394.09 304.004 394.727 304.004 394.906 304.099 395.36 304.588 395.996L305.961 394.727C307.528 393.454 308.996 393 308.996 393Z" fill="#F3ACAF" fill-rule="evenodd"/><path d="M311.919 395 310.802 396.473C310.802 396.473 310.322 398.684 310.003 401.443 310.56 401.629 311.282 401.903 312 401.996 312.641 401.903 313.359 401.629 313.997 401.443 313.678 398.684 313.198 396.473 312.96 396.473L311.919 395Z" fill="#883236" fill-rule="evenodd"/><path d="M310 394.004C310 394.004 310 395.236 311.018 396.996L312.982 396.996C313.932 395.236 314 394.004 314 394.004Z" fill="#C76F3E" fill-rule="evenodd"/><path d="M303.534 400C303.268 400 303 400.26 303 400.457L303 403 304 403 304 400.457C304 400.26 303.732 400 303.534 400Z" fill="#36180A" fill-rule="evenodd"/><path d="M319.933 400C319.402 400 319.006 400.26 319.006 400.457L319.006 403 321 403 321 400.457C321 400.26 320.469 400 319.933 400Z" fill="#36180A" fill-rule="evenodd"/><path d="M312.038 365C307.792 365 303.785 366.643 300.718 369.678 297.651 372.712 296 376.732 296 380.997L328 380.997C328 376.732 326.349 372.712 323.282 369.678 320.374 366.643 316.204 365 312.038 365Z" fill="#CF7341" fill-rule="evenodd"/><path d="M311.691 365.003C307.461 365.003 303.54 366.643 300.618 369.595 297.618 372.712 296.003 376.732 296.003 380.997L300.618 380.997C300.618 376.815 302.233 372.795 305.233 369.76 307.616 367.298 310.693 365.741 314 365.248 313.228 365.083 312.46 365.003 311.691 365.003Z" fill="#A15A33" fill-rule="evenodd"/><path d="M297 365 297 374 326.997 374 326.997 365Z" fill="#3D1B0C" fill-rule="evenodd"/><path d="M326.002 378.003C324.31 378.003 323.003 379.385 323.003 381.002 323.003 382.615 324.31 383.997 326.002 383.997 327.615 383.997 328.997 382.615 328.997 381.002 328.997 379.385 327.615 378.003 326.002 378.003Z" fill="#FDAA7D" fill-rule="evenodd"/><path d="M304.897 376C303.526 376 302.144 376.209 300.724 376.776 299.091 377.427 298 379.143 298 380.941 298 388.624 304.299 394.997 312 394.997 319.779 394.997 326 388.707 326 380.941 326 379.634 325.765 378.327 325.376 377.019 325.262 376.415 324.72 376.079 324.191 376.079 324.008 376.079 323.825 376.117 323.665 376.202 321.288 377.325 319.096 377.705 317.026 377.705 312.647 377.705 308.813 376 304.897 376Z" fill="#FEC6A7" fill-rule="evenodd"/><path d="M301.539 376 300.693 376.336C299.925 376.668 299.234 377.168 298.846 377.917 298.694 377.833 298.388 377.669 298 377.669 296.385 377.669 295.003 379.166 295.003 380.919 295.003 382.668 296.385 384.165 298 384.165L298.388 384.165C299.925 390.414 305.308 394.996 311.844 394.996L312.997 394.996C305.847 394.248 300.309 388.084 300.309 380.583 300.309 379.334 300.771 377.501 301.539 376Z" fill="#FDAA7D" fill-rule="evenodd"/><path d="M319.534 379.004C319.265 379.004 319 379.355 319 379.707L319 381.382C319 381.734 319.265 381.996 319.534 381.996 319.866 381.996 319.997 381.734 319.997 381.382L319.997 379.707C319.997 379.355 319.732 379.004 319.534 379.004Z" fill="#36180A" fill-rule="evenodd"/><path d="M318.586 383C318.295 383 318.003 383.201 318.003 383.466 318.003 383.732 318.295 383.997 318.586 383.997L320.414 383.997C320.782 383.997 321 383.799 321 383.466 321 383.201 320.708 383 320.414 383Z" fill="#5ECA83" fill-rule="evenodd"/><path d="M304.5 379.004C304.249 379.004 304 379.355 304 379.707L304 381.382C304 381.734 304.249 381.996 304.5 381.996 304.749 381.996 304.997 381.734 304.997 381.382L304.997 379.707C304.997 379.355 304.749 379.004 304.5 379.004Z" fill="#36180A" fill-rule="evenodd"/><path d="M303.601 383C303.302 383 303 383.201 303 383.466 303 383.732 303.302 383.997 303.601 383.997L305.474 383.997C305.701 383.997 306 383.799 306 383.466 306 383.201 305.701 383 305.474 383Z" fill="#5ECA83" fill-rule="evenodd"/><path d="M310.629 382C310.513 382 310.406 382.043 310.31 382.115 310.003 382.457 310.003 382.799 310.155 383.14 310.539 383.655 311.232 383.996 311.923 383.996 312.539 383.996 313.229 383.655 313.842 383.14 313.997 382.799 313.997 382.371 313.69 382.115 313.594 382.043 313.471 382 313.345 382 313.168 382 312.981 382.083 312.845 382.284 312.69 382.543 312.384 382.712 312 382.712 311.616 382.712 311.31 382.457 311.155 382.284 310.974 382.083 310.794 382 310.629 382Z" fill="#36180A" fill-rule="evenodd"/><path d="M297 365 297 369.996 326.997 369.996 326.997 365Z" fill="#36180A" fill-rule="evenodd"/><path d="M296.013 364C295.392 364 295.003 364.467 295.003 364.868L295.003 366.2C295.003 366.667 295.546 367 296.013 367L327.987 367C328.608 367 328.997 366.6 328.997 366.2L328.997 364.868C328.997 364.333 328.608 364 327.987 364Z" fill="#3D1B0C" fill-rule="evenodd"/></g></svg>