<svg width="37" height="41" xmlns="http://www.w3.org/2000/svg" xmlns:xlink="http://www.w3.org/1999/xlink" overflow="hidden"><defs><clipPath id="clip0"><rect x="160" y="363" width="37" height="41"/></clipPath></defs><g clip-path="url(#clip0)" transform="translate(-160 -363)"><path d="M173.004 393 173.004 403 176.095 403 178.502 402.3 180.822 403 184 403 184 393Z" fill="#FADFE0" fill-rule="evenodd"/><path d="M173.287 393 172.003 397.263 173.287 402.922 183.555 402.922 183.555 403 185 397.11 183.555 393Z" fill="#FADFE0" fill-rule="evenodd"/><path d="M184.003 393 184.003 403 190 403C190 395.249 184.003 393 184.003 393Z" fill="#3D1B0C" fill-rule="evenodd"/><path d="M173 393C173 393 167.003 395.249 167.003 403L173 403 173 393Z" fill="#3D1B0C" fill-rule="evenodd"/><path d="M173 393C173 393 167.003 395.32 167.003 403.996L168.483 403.996C168.483 398.155 171.222 395.147 173 393.859L173 393Z" fill="#36180A" fill-rule="evenodd"/><path d="M178.502 395.003 177.111 396.385C177.111 396.385 176.004 399.768 176.004 403L181 403C181 399.846 179.889 396.385 179.889 396.385L178.502 395.003Z" fill="#883236" fill-rule="evenodd"/><path d="M176 394.004C176 394.004 176.083 395.236 177.31 397L179.686 397C180.914 395.236 180.997 394.004 180.997 394.004Z" fill="#C76F3E" fill-rule="evenodd"/><path d="M170.466 400C170.268 400 170 400.193 170 400.447L170 403 170.997 403 170.997 400.447C170.997 400.193 170.732 400 170.466 400Z" fill="#36180A" fill-rule="evenodd"/><path d="M186.466 400C186.265 400 186 400.193 186 400.447L186 403 186.997 403 186.997 400.447C186.997 400.193 186.732 400 186.466 400Z" fill="#36180A" fill-rule="evenodd"/><path d="M186.939 364.003C186.743 364.003 186.543 364.024 186.34 364.064 184.859 364.384 182.285 364.785 178.462 364.785 174.093 364.785 169.959 366.474 166.838 369.524 163.72 372.652 162.003 376.666 162.003 381L195 381C195 374.098 191.332 367.997 189.304 365.19 188.724 364.458 187.876 364.003 186.939 364.003Z" fill="#CF7341" fill-rule="evenodd"/><path d="M176.556 365 176.556 365C172.549 365.319 168.939 366.902 166.054 369.596 162.845 372.682 161 376.643 161 381L195 381 195 380.208 165.172 380.208C165.172 375.932 166.936 371.891 170.141 368.801 171.987 366.982 174.152 365.792 176.556 365Z" fill="#A15A33" fill-rule="evenodd"/><path d="M193.041 378.003C191.328 378.003 190.003 379.385 190.003 380.998 190.003 382.615 191.328 383.997 193.041 383.997 194.676 383.997 196 382.615 196 380.998 196 379.385 194.676 378.003 193.041 378.003Z" fill="#FDAA7D" fill-rule="evenodd"/><path d="M182.628 371C179.038 371 175.574 371.73 172.143 371.73 171.137 371.73 170.131 371.667 169.125 371.505 169.003 371.486 168.88 371.476 168.754 371.476 167.921 371.476 167.084 371.921 166.604 372.605 164.95 374.729 164.003 377.483 164.003 380.393 164.003 387.943 170.541 394 178.502 394 186.459 394 193 387.943 193 380.393 192.921 378.111 192.289 376.066 191.342 374.177 190.714 373.077 189.767 372.291 188.666 371.898 186.601 371.218 184.596 371 182.628 371Z" fill="#FEC6A7" fill-rule="evenodd"/><path d="M168.915 372.003C168.063 372.003 167.208 372.439 166.718 373.106 165.589 374.567 164.785 376.18 164.383 378.022L164.062 378.022C162.372 378.022 161.003 379.328 161.003 380.941 161.003 382.631 162.372 383.937 164.062 383.937L164.464 383.937C166.073 389.775 171.869 394 178.79 394L179.997 394C172.43 393.384 166.475 387.701 166.475 380.712 166.475 377.793 167.523 375.18 169.131 373.106 169.452 372.722 169.936 372.339 170.419 372.11 170.017 372.11 169.696 372.032 169.293 372.032 169.168 372.013 169.043 372.003 168.915 372.003Z" fill="#FDAA7D" fill-rule="evenodd"/><path d="M186.466 379C186.201 379 186 379.266 186 379.618L186 381.293C186 381.645 186.201 381.996 186.466 381.996 186.732 381.996 187 381.645 187 381.293L187 379.618C187 379.266 186.732 379 186.466 379Z" fill="#35170A" fill-rule="evenodd"/><path d="M184.801 383.003C184.403 383.003 184.004 383.267 184.004 383.468 184.004 383.733 184.403 383.997 184.801 383.997L187.3 383.997C187.597 383.997 187.996 383.799 187.996 383.468 187.996 383.267 187.597 383.003 187.3 383.003Z" fill="#5ECA83" fill-rule="evenodd"/><path d="M170.532 379C170.267 379 170.003 379.266 170.003 379.618L170.003 381.293C170.003 381.645 170.267 381.996 170.532 381.996 170.799 381.996 170.997 381.645 170.997 381.293L170.997 379.618C170.997 379.266 170.799 379 170.532 379Z" fill="#35170A" fill-rule="evenodd"/><path d="M169.526 383.003C169.299 383.003 169 383.267 169 383.468 169 383.733 169.299 383.997 169.526 383.997L171.399 383.997C171.698 383.997 172 383.799 172 383.468 172 383.267 171.698 383.003 171.399 383.003Z" fill="#5ECA83" fill-rule="evenodd"/><path d="M176.827 382C176.646 382 176.468 382.065 176.291 382.185 176 382.446 176 382.79 176.194 383.134 176.674 383.652 177.542 383.996 178.405 383.996 179.269 383.996 180.04 383.652 180.806 383.134 181 382.79 181 382.359 180.709 382.185 180.532 382.065 180.334 382 180.144 382 179.923 382 179.713 382.087 179.559 382.272 179.366 382.616 178.982 382.703 178.502 382.703 178.115 382.703 177.634 382.616 177.445 382.272 177.239 382.087 177.033 382 176.827 382Z" fill="#35170A" fill-rule="evenodd"/></g></svg>