<svg width="36" height="41" xmlns="http://www.w3.org/2000/svg" xmlns:xlink="http://www.w3.org/1999/xlink" overflow="hidden"><defs><clipPath id="clip0"><rect x="227" y="361" width="36" height="41"/></clipPath></defs><g clip-path="url(#clip0)" transform="translate(-227 -361)"><path d="M240.549 391C240.549 391 237.063 392.298 235.319 396.455 235.24 396.716 235.083 397.062 235.003 397.236L239.362 402 251.642 402 256 397.236C254.337 392.473 250.454 391 250.454 391Z" fill="#C76F3E" fill-rule="evenodd"/><path d="M240.599 391C240.599 391 237.079 392.249 235.319 396.248 235.161 396.5 235.081 396.832 235 397L237.398 397C237.479 396.832 237.559 396.5 237.72 396.248 239.48 392.333 242.997 391 242.997 391Z" fill="#883236" fill-rule="evenodd"/><path d="M245.502 362C241.493 363.497 237.172 364.756 233.952 367.825 230.808 370.736 229.003 374.827 229.003 378.997L262 378.997C262 374.827 260.271 370.892 257.127 367.825 253.908 364.756 249.586 363.576 245.502 362Z" fill="#3D1B0C" fill-rule="evenodd"/><path d="M245.436 362C241.444 363.497 237.139 364.756 233.932 367.825 230.801 370.736 229.003 374.748 229.003 378.997L232.131 378.997C232.289 374.827 233.932 370.892 237.06 367.825 239.88 365.149 243.478 363.89 247 362.631 246.53 362.393 245.981 362.238 245.436 362Z" fill="#36180A" fill-rule="evenodd"/><path d="M259.5 376.003C257.616 376.003 256 377.385 256 379.002 256 380.615 257.616 381.997 259.5 381.997 261.474 381.997 263 380.615 263 379.002 263 377.385 261.474 376.003 259.5 376.003Z" fill="#FDAA7D" fill-rule="evenodd"/><path d="M245.46 389C243.566 389 242 390.566 242 392.54 242 394.434 243.566 396 245.46 396 247.434 396 249 394.434 249 392.54 249 390.566 247.434 389 245.46 389Z" fill="#FDAA7D" fill-rule="evenodd"/><path d="M240.064 369C238.224 369 236.411 369.705 234.891 370.872 232.377 372.682 231.003 375.724 231.003 378.85 231.003 386.583 237.564 392.997 245.58 392.997 253.518 392.997 259.997 386.666 259.997 378.85 259.997 375.724 258.619 372.682 256.109 370.872 254.548 369.705 252.736 369 250.906 369 249.131 369 247.338 369.663 245.743 371.203 245.662 371.241 245.56 371.262 245.468 371.262 245.379 371.262 245.298 371.241 245.257 371.203 243.662 369.663 241.849 369 240.064 369Z" fill="#FEC6A7" fill-rule="evenodd"/><path d="M239.548 369C237.826 369 236.148 369.658 234.721 370.843 233.099 372.156 231.941 374.044 231.322 375.932L230.936 375.932C229.314 375.932 228 377.407 228 379.133 228 380.855 229.314 382.33 230.936 382.33L231.322 382.33C232.866 388.483 238.273 392.997 244.842 392.997L246 392.997C238.893 392.259 233.252 386.189 233.252 378.802 233.252 375.684 234.643 372.649 237.037 370.843 238.199 369.941 239.434 369.286 240.823 369.121 240.398 369.041 239.973 369 239.548 369Z" fill="#FDAA7D" fill-rule="evenodd"/><path d="M252.466 377.004C252.265 377.004 252 377.355 252 377.707L252 379.382C252 379.734 252.265 379.996 252.466 379.996 252.732 379.996 252.997 379.734 252.997 379.382L252.997 377.707C252.997 377.355 252.732 377.004 252.466 377.004Z" fill="#35170A" fill-rule="evenodd"/><path d="M251.586 381C251.294 381 251.003 381.201 251.003 381.466 251.003 381.732 251.294 381.997 251.586 381.997L253.414 381.997C253.779 381.997 253.997 381.799 253.923 381.466 253.923 381.201 253.632 381 253.414 381Z" fill="#5ECA83" fill-rule="evenodd"/><path d="M237.534 377.004C237.268 377.004 237 377.355 237 377.707L237 379.382C237 379.734 237.268 379.996 237.534 379.996 237.732 379.996 238 379.734 238 379.382L238 377.707C238 377.355 237.732 377.004 237.534 377.004Z" fill="#35170A" fill-rule="evenodd"/><path d="M236.525 381C236.226 381 236.003 381.201 236.003 381.466 236.003 381.732 236.226 381.997 236.525 381.997L238.399 381.997C238.698 381.997 238.997 381.799 238.997 381.466 238.997 381.201 238.698 381 238.399 381Z" fill="#5ECA83" fill-rule="evenodd"/><path d="M243.646 380.004C243.539 380.004 243.429 380.049 243.307 380.152 243 380.487 243 380.822 243.232 381.157 243.617 381.661 244.308 381.996 244.924 381.996 245.615 381.996 246.306 381.661 246.768 381.157 247 380.822 247 380.402 246.69 380.152 246.596 380.081 246.474 380.039 246.351 380.039 246.18 380.039 246.012 380.12 245.922 380.317 245.692 380.571 245.46 380.737 245.076 380.737 244.614 380.737 244.385 380.487 244.153 380.317 243.969 380.113 243.81 380.004 243.646 380.004Z" fill="#35170A" fill-rule="evenodd"/><path d="M235 395.004C234.402 395.004 234.003 395.527 234.003 396.318L234.003 398.686C234.003 399.473 234.402 400 235 400 235.598 400 235.997 399.385 235.997 398.686L235.997 396.318C235.997 395.527 235.598 395.004 235 395.004Z" fill="#FDAA7D" fill-rule="evenodd"/><path d="M235.732 397C235.343 397 234.876 397.088 234.566 397.177 232.934 397.965 232 400.155 232.702 402L238.843 402C238.922 401.558 238.997 401.12 238.997 400.682 238.997 398.58 237.599 397 235.732 397Z" fill="#FEC6A7" fill-rule="evenodd"/><path d="M256 395.004C255.402 395.004 255.003 395.527 255.003 396.318L255.003 398.686C255.003 399.385 255.402 400 256 400 256.598 400 256.997 399.473 256.997 398.686L256.997 396.318C256.997 395.527 256.598 395.004 256 395.004Z" fill="#FDAA7D" fill-rule="evenodd"/><path d="M254.347 397C252.557 397 251.003 398.58 251.157 400.682 251.157 401.12 251.235 401.558 251.313 402L257.376 402C258 400.155 257.145 397.965 255.512 397.177 255.202 397.088 254.735 397 254.347 397Z" fill="#FEC6A7" fill-rule="evenodd"/></g></svg>