<svg width="38" height="41" xmlns="http://www.w3.org/2000/svg" xmlns:xlink="http://www.w3.org/1999/xlink" overflow="hidden"><defs><clipPath id="clip0"><rect x="760" y="300" width="38" height="41"/></clipPath></defs><g clip-path="url(#clip0)" transform="translate(-760 -300)"><path d="M778.962 301C774.485 301 770.245 302.626 767.028 305.637 763.807 308.729 762.003 312.746 762.003 316.997L795.997 316.919C795.997 312.668 794.193 308.573 790.972 305.637 787.755 302.626 783.515 301 778.962 301Z" fill="#3D1B0C" fill-rule="evenodd"/><path d="M778.895 301C774.38 301 770.176 302.626 766.985 305.637 763.791 308.573 762 312.668 762 316.997L766.283 316.997C766.283 312.746 768.074 308.729 771.265 305.637 773.913 303.086 777.339 301.542 780.997 301.078 780.297 301 779.519 301 778.895 301Z" fill="#36180A" fill-rule="evenodd"/><path d="M766.478 320.004 762.004 320.592C762.004 330.045 770.526 332.996 770.526 332.996L775 332.996 775 326.753 766.478 320.004Z" fill="#3D1B0C" fill-rule="evenodd"/><path d="M766.489 321.003 762.004 321.471C762.004 330.254 770.46 332.997 770.46 332.997L773.996 332.997C773.996 332.997 765.457 330.33 765.457 321.471L766.92 321.316 766.489 321.003Z" fill="#36180A" fill-rule="evenodd"/><path d="M791.919 320.004 784.003 326.753 784.003 332.996 788.081 332.996C788.081 332.996 796 330.045 796 320.592L791.919 320.004Z" fill="#3D1B0C" fill-rule="evenodd"/><path d="M773.862 330.004C773.862 330.004 770.249 331.272 768.324 335.502 768.243 335.669 768.162 336.01 768.003 336.177L772.578 341 785.503 341 790 336.177C788.314 331.442 784.219 330.004 784.219 330.004Z" fill="#80D5C2" fill-rule="evenodd"/><path d="M773.725 330.003C773.725 330.003 770.12 331.234 768.316 335.341 768.158 335.503 768.082 335.834 768.003 335.997L770.354 335.997C770.433 335.752 770.591 335.503 770.667 335.341 772.471 331.234 776 330.003 776 330.003Z" fill="#5AC9B0" fill-rule="evenodd"/><path d="M794.037 315.004C792.334 315.004 791 316.491 791 318.5 791 320.424 792.334 322 794.037 322 795.666 322 796.997 320.424 796.997 318.5 796.997 316.664 795.666 315.004 794.037 315.004Z" fill="#FDAA7D" fill-rule="evenodd"/><path d="M779.539 328C777.611 328 776 329.611 776 331.458 776 333.389 777.611 334.997 779.539 334.997 781.389 334.997 782.997 333.389 782.997 331.458 782.997 329.611 781.389 328 779.539 328Z" fill="#FDAA7D" fill-rule="evenodd"/><path d="M775.858 307.003C771.1 313.61 764.325 314.321 764.325 314.321 764.163 315.186 764.003 316.207 764.003 317.152 764.003 324.862 770.775 330.997 779.081 330.997 787.306 330.997 794 324.783 794 317.152 794 316.207 793.837 315.186 793.678 314.321 785.129 314.321 775.858 307.003 775.858 307.003Z" fill="#FEC6A7" fill-rule="evenodd"/><path d="M766.756 314.003 766.756 314.003C765.336 314.393 764.548 314.471 764.548 314.471 764.469 314.782 764.469 314.94 764.313 315.251L764.155 315.251C762.341 315.251 761 316.576 761 318.367 761 320.082 762.341 321.487 764.155 321.487 764.469 321.487 764.628 321.487 764.863 321.408 766.677 326.944 772.195 330.997 778.818 330.997L780 330.997C772.668 330.453 766.597 324.528 766.597 317.277 766.597 316.576 766.756 315.172 766.756 314.003Z" fill="#FDAA7D" fill-rule="evenodd"/><path d="M786.532 316.004C786.267 316.004 786.003 316.355 786.003 316.707L786.003 318.382C786.003 318.645 786.267 318.996 786.532 318.996 786.864 318.996 786.997 318.645 786.997 318.382L786.997 316.707C786.997 316.355 786.799 316.004 786.532 316.004Z" fill="#35170A" fill-rule="evenodd"/><path d="M785.513 320.003C785.292 320.003 785 320.251 785 320.501 785 320.749 785.292 320.997 785.513 320.997L787.487 320.997C787.705 320.997 787.997 320.812 787.997 320.501 787.997 320.251 787.705 320.003 787.487 320.003Z" fill="#5ECA83" fill-rule="evenodd"/><path d="M771.466 316.004C771.201 316.004 771.003 316.355 771.003 316.707L771.003 318.382C771.003 318.645 771.201 318.996 771.466 318.996 771.799 318.996 772 318.645 772 318.382L772 316.707C772 316.355 771.735 316.004 771.466 316.004Z" fill="#35170A" fill-rule="evenodd"/><path d="M770.586 320.003C770.292 320.003 770 320.251 770 320.501 770 320.749 770.292 320.997 770.586 320.997L772.487 320.997C772.779 320.997 772.997 320.812 772.997 320.501 772.997 320.251 772.779 320.003 772.487 320.003Z" fill="#5ECA83" fill-rule="evenodd"/><path d="M777.648 319C777.51 319 777.371 319.045 777.232 319.124 777.003 319.483 777.003 319.749 777.155 320.105 777.542 320.64 778.232 320.996 778.923 320.996 779.539 320.996 780.229 320.73 780.845 320.105 780.997 319.839 780.997 319.303 780.69 319.124 780.587 319.045 780.452 319 780.313 319 780.145 319 779.971 319.067 779.845 319.213 779.69 319.569 779.384 319.659 779 319.659 778.694 319.659 778.31 319.569 778.155 319.213 777.987 319.067 777.816 319 777.648 319Z" fill="#35170A" fill-rule="evenodd"/><path d="M768.001 334C767.467 334 767 334.517 767 335.292L767 337.705C767 338.396 767.467 338.996 768.001 338.996 768.6 338.996 769 338.396 769 337.705L769 335.292C769 334.517 768.6 334 768.001 334Z" fill="#FDAA7D" fill-rule="evenodd"/><path d="M769.653 336.004C769.197 336.004 768.817 336.09 768.437 336.174 766.84 336.952 766.003 339.104 766.533 341L772.693 341C772.847 340.569 772.923 340.139 772.923 339.708 773 337.726 771.477 336.004 769.653 336.004Z" fill="#FEC6A7" fill-rule="evenodd"/><path d="M790 334C789.402 334 789.003 334.517 789.003 335.292L789.003 337.705C789.003 338.396 789.402 338.996 790 338.996 790.598 338.996 790.997 338.396 790.997 337.705L790.997 335.292C790.997 334.517 790.598 334 790 334Z" fill="#FDAA7D" fill-rule="evenodd"/><path d="M788.787 336.004C786.635 336.004 785.004 337.726 785.09 339.708 785.09 340.139 785.26 340.569 785.347 341L792.31 341C793 339.104 791.968 336.952 790.162 336.174 789.733 336.09 789.303 336.004 788.787 336.004Z" fill="#FEC6A7" fill-rule="evenodd"/></g></svg>