<svg width="101" height="95" xmlns="http://www.w3.org/2000/svg" xmlns:xlink="http://www.w3.org/1999/xlink" overflow="hidden"><defs><clipPath id="clip0"><rect x="411" y="413" width="101" height="95"/></clipPath></defs><g clip-path="url(#clip0)" transform="translate(-411 -413)"><path d="M461.378 414.008C433.535 414.008 411.01 431.763 411.01 453.469L411.01 480.693C411.01 484.636 415.129 487.992 420.213 487.992L502.787 487.992C507.637 487.992 511.99 484.835 511.99 480.693L511.99 453.469C511.512 431.763 489.231 414.008 461.378 414.008Z" fill="#FF0000" fill-rule="evenodd"/><path d="M461.203 414.008C433.457 414.008 411.01 431.763 411.01 453.469L411.01 480.693C411.01 484.636 415.114 487.992 420.181 487.992L431.521 487.992C426.454 487.793 422.593 484.636 422.593 480.693L422.593 453.469C422.593 433.345 441.898 416.568 467 414.207 465.064 414.008 462.896 414.008 461.203 414.008Z" fill="#D6D6D6" fill-rule="evenodd"/><path d="M438.293 474C438.293 474 418 485.596 421.144 508L431.285 508 433.222 506.598 434.906 508 445.534 508 460.99 490.996 445.534 474Z" fill="#2F1509" fill-rule="evenodd"/><path d="M476.544 474 461 490.996 476.544 508 486.988 508 488.936 506.598 490.639 508 501.083 508C503.99 485.596 483.836 474 483.836 474Z" fill="#2F1509" fill-rule="evenodd"/><path d="M446 474 446 508 476 508 476 474Z" fill="#E0D6D2" fill-rule="evenodd"/><path d="M433.601 493C432.796 493 432 493.817 432 494.625L432 508 434.992 508 434.992 494.625C434.992 493.817 434.397 493 433.601 493Z" fill="#291208" fill-rule="evenodd"/><path d="M489.134 493C488.073 493 487 493.817 487 494.625L487 508 491 508 491 494.625C491 493.817 490.196 493 489.134 493Z" fill="#291208" fill-rule="evenodd"/><path d="M450.451 436C441.077 450.237 418.01 453.599 418.01 453.599 418.01 472.576 437.475 487.992 461.5 487.992 485.535 487.992 505 472.576 505 453.599 466.071 451.424 450.451 436 450.451 436Z" fill="#FED2BA" fill-rule="evenodd"/><path d="M458.054 463.009C457.721 463.009 457.359 463.108 456.966 463.287 456.01 463.934 456.01 464.786 456.725 465.424 457.923 467.138 459.846 467.991 462.242 467.991 464.638 467.991 466.55 466.923 467.99 465.424 467.99 465.002 467.758 463.934 467.034 463.287 466.782 463.135 466.5 463.063 466.198 463.063 465.664 463.063 465.101 463.305 464.638 463.718 464.154 464.355 462.956 465.002 462 465.002 461.044 465.002 459.846 464.355 459.362 463.718 458.94 463.215 458.517 463.009 458.054 463.009Z" fill="#281208" fill-rule="evenodd"/><path d="M432.629 465.008C431.702 465.008 431.01 465.804 431.01 466.399 431.01 467.204 431.702 468 432.629 468L439.371 468C440.298 468 441 467.204 441 466.399 441 465.804 440.298 465.008 439.371 465.008Z" fill="#FDA879" fill-rule="evenodd"/><path d="M436.134 455C435.061 455 434 455.587 434 456.362L434 460.442C434.536 461.413 435.061 461.992 436.134 461.992 437.196 461.992 437.989 461.217 437.989 460.442L437.989 456.362C437.989 455.587 437.196 455 436.134 455Z" fill="#281208" fill-rule="evenodd"/><path d="M486.601 455C485.796 455 485 455.587 485 456.362L485 460.442C485 461.413 485.796 461.992 486.601 461.992 487.397 461.992 487.992 461.217 487.992 460.442L487.992 456.362C487.992 455.587 487.397 455 486.601 455Z" fill="#281208" fill-rule="evenodd"/><path d="M483.003 465.008C482.007 465.008 481.01 465.804 481.01 466.399 481.01 467.204 482.007 468 483.003 468L490.249 468C491.004 468 492 467.204 492 466.399 492 465.804 491.004 465.008 490.249 465.008Z" fill="#FDA879" fill-rule="evenodd"/><path d="M425.854 451C421.094 452.604 418.01 452.999 418.01 452.999 418.01 469.802 432.5 483.599 451.99 487 436.542 479.602 426.323 466.401 425.854 451Z" fill="#FDBD9B" fill-rule="evenodd"/></g></svg>