<svg width="83" height="91" xmlns="http://www.w3.org/2000/svg" xmlns:xlink="http://www.w3.org/1999/xlink" overflow="hidden"><defs><clipPath id="clip0"><rect x="323" y="262" width="83" height="91"/></clipPath></defs><g clip-path="url(#clip0)" transform="translate(-323 -262)"><path d="M352.968 263.014C333.874 263.014 324.013 283.313 326.89 298.68L332.174 304.994 333.429 305.986 334.986 304.994 394.465 304.994 396.021 305.986 397.277 304.994 402.56 298.68C405.987 285.366 403.816 275.713 402.26 271.061 401.789 269.566 400.625 268.812 399.409 268.812 399.003 268.812 398.598 268.895 398.205 269.063 396.296 269.789 393.249 270.53 388.841 270.53 383.218 270.53 375.371 269.328 364.882 265.403 360.593 263.754 356.617 263.014 352.968 263.014Z" fill="#231007" fill-rule="evenodd"/><path d="M352.314 262C333.316 262 323 282.858 326.257 299L332.434 299C329.657 283.841 338.001 264.546 354.987 262.145 354.079 262.043 353.183 262 352.314 262Z" fill="#1C0C05" fill-rule="evenodd"/><path d="M348.089 334C348.089 334 339.013 339.186 339.013 351.985L390 351.985C390 339.186 380.609 334 380.609 334Z" fill="#ED844A" fill-rule="evenodd"/><path d="M362.597 343 361 352 369 352 367.389 343Z" fill="#B69F94" fill-rule="evenodd"/><path d="M361.015 336 361.015 341.285C361.015 341.995 361.366 343.046 362.054 343.401L362.757 344.467C363.285 344.808 363.797 344.985 364.368 344.985 364.939 344.985 365.554 344.808 366.243 344.467L367.297 343.401C367.985 343.046 367.985 341.995 367.985 341.285L367.985 336Z" fill="#E2D8D4" fill-rule="evenodd"/><path d="M371.22 334 368.013 338.355 373.147 342.711C373.484 342.893 373.874 342.985 374.265 342.985 375.316 342.985 376.353 342.315 376.353 341.249L377 336.178 371.22 334Z" fill="#AE6137" fill-rule="evenodd"/><path d="M357.9 334 352 336.178 352.938 341.249C352.938 342.315 353.928 342.985 354.957 342.985 355.321 342.985 355.699 342.893 356.038 342.711L361 338.355 357.9 334Z" fill="#AE6137" fill-rule="evenodd"/><path d="M395.629 296C396.573 299.064 396.887 302.114 396.887 304.822L395.013 308.898 395.629 313.986 396.887 313.986C401.566 313.986 405 309.924 405 304.822 405 299.734 401.566 296 396.887 296Z" fill="#FDBF9C" fill-rule="evenodd"/><path d="M339.745 283C341.863 302.565 336.262 304.902 333.468 304.902 332.598 304.902 332.013 304.664 332.013 304.664L332.013 304.664C332.013 322.997 346.242 338 364.5 338 382.758 338 397 322.997 397 304.664L397 304.664C397 304.664 396.402 304.902 395.532 304.902 392.751 304.902 387.137 302.565 389.255 283L389.255 283C389.255 283 378.43 285.337 364.5 285.337 350.583 285.337 339.745 283 339.745 283Z" fill="#FED3BC" fill-rule="evenodd"/><path d="M332.011 296C327.391 296 324 299.695 324 304.73 324 309.779 327.391 313.798 332.011 313.798L333.253 313.798C337.253 327.915 349.586 338.986 364.379 338.986L365 338.986C349.897 334.29 338.184 320.525 337.253 303.728 336.023 304.73 334.716 304.984 333.706 304.984 332.71 304.984 332.011 304.73 332.011 304.73 332.011 302.05 332.632 299.032 333.253 296Z" fill="#FDBF9C" fill-rule="evenodd"/><path d="M349.332 301.014C348.341 301.014 347 302.34 347 303.332L347 306.333C347 307.66 348.341 308.986 349.332 308.986 350.659 308.986 352 307.995 352 306.333L352 303.332C352 302.34 350.659 301.014 349.332 301.014Z" fill="#281208" fill-rule="evenodd"/><path d="M381.134 301.014C380.073 301.014 379.011 302.34 379.011 303.332L379.011 306.333C379.011 307.66 380.073 308.986 381.134 308.986 382.196 308.986 382.732 307.995 383 306.333L383 303.332C383 302.34 382.196 301.014 381.134 301.014Z" fill="#281208" fill-rule="evenodd"/><path d="M360.638 304C360.142 304 359.659 304.172 359.241 304.489 358 305.509 358 307.22 358.627 307.91 360.181 309.62 362.662 310.986 364.843 310.986 367.325 310.986 369.506 309.965 371.06 307.91 372 307.22 371.687 305.509 370.746 304.489 370.511 304.216 370.146 304.115 369.715 304.115 369.035 304.115 368.213 304.402 367.638 304.819 367.024 305.854 366.084 306.199 364.843 306.199 363.903 306.199 362.976 305.854 362.349 304.819 361.84 304.259 361.239 304 360.638 304Z" fill="#281208" fill-rule="evenodd"/></g></svg>