<svg width="81" height="91" xmlns="http://www.w3.org/2000/svg" xmlns:xlink="http://www.w3.org/1999/xlink" overflow="hidden"><defs><clipPath id="clip0"><rect x="449" y="263" width="81" height="91"/></clipPath></defs><g clip-path="url(#clip0)" transform="translate(-449 -263)"><path d="M478.183 325.01C478.183 325.01 464.011 329.419 464.011 345.86L470.693 351.99 478.183 345.86 483 336.043 478.183 325.01Z" fill="#3D1B0C" fill-rule="evenodd"/><path d="M500.484 325.01 496 335.955 500.484 345.693 507.869 352.99 514.989 345.693C514.989 329.384 500.484 325.01 500.484 325.01Z" fill="#3D1B0C" fill-rule="evenodd"/><path d="M478.011 325.01 478.011 345.693 489.636 352.99 500.989 345.693 500.989 325.01Z" fill="#FADFE0" fill-rule="evenodd"/><path d="M508.81 264C508.306 264 507.779 264.051 507.253 264.142 504.047 264.873 497.906 265.838 489.366 265.838 479.223 265.838 469.887 268.985 462.938 275.025 456.001 281.066 452 289.289 452 297.99L527 297.99C527 284.213 518.729 272.122 513.921 266.325 512.643 264.772 510.85 264 508.81 264Z" fill="#3D1B0C" fill-rule="evenodd"/><path d="M489.366 265C479.223 265 469.887 268.229 462.938 274.427 456.001 280.625 452 289.063 452 297.99L527 297.99 527 296.75 466.144 296.75C466.144 287.823 470.145 279.385 477.351 273.188 481.89 269.219 487.494 265.99 493.636 265Z" fill="#36180A" fill-rule="evenodd"/><path d="M521.994 293.01C517.96 293.01 515 295.768 515 299 515 302.455 517.96 304.99 521.994 304.99 526.04 304.99 529 302.223 529 299 529 295.545 526.04 293.01 521.994 293.01Z" fill="#FDAA7D" fill-rule="evenodd"/><path d="M489.136 331.01 485.621 334.01C485.088 336.759 484.011 341.5 484.011 346L494 346C494 341.5 493.184 336.759 492.379 334.01L489.136 331.01Z" fill="#883236" fill-rule="evenodd"/><path d="M484.012 326C484.284 327.331 484.284 330.263 485.975 334L492.741 334C494.432 330.263 494.432 327.331 494.988 326Z" fill="#C76F3E" fill-rule="evenodd"/><path d="M498.619 279C490.702 279 483.043 280.496 475.462 280.496 473.138 280.496 470.824 280.35 468.511 279.987 468.253 279.966 468.017 279.956 467.781 279.956 465.715 279.956 464.086 280.891 462.885 282.22 459.145 286.915 457.011 292.358 457.011 298.539 457.011 314.379 471.711 326.99 489.635 326.99 507.547 326.99 521.989 314.379 521.989 298.539 521.989 293.844 520.652 289.387 518.249 285.679 516.913 283.456 515.037 281.472 512.365 280.984 507.67 279.478 503.1 279 498.619 279Z" fill="#FEC6A7" fill-rule="evenodd"/><path d="M467.816 280.01C465.74 280.01 464.104 280.939 462.897 282.261 460.482 285.203 458.598 288.651 457.797 292.584L456.996 292.584C453.498 292.584 450 295.536 450 299.221 450 302.411 452.956 305.611 456.996 305.611L458.067 305.611C461.825 317.906 474.451 327 489.773 327L493 327C476.335 325.276 463.438 313.229 463.438 298.478 463.438 292.336 465.593 286.927 469.351 282.261 469.892 281.27 470.964 280.785 472.036 280.289 470.964 280.289 469.621 280.041 468.549 280.041 468.29 280.021 468.053 280.01 467.816 280.01Z" fill="#FDAA7D" fill-rule="evenodd"/><path d="M505.866 295C505.073 295 504.011 295.855 504.011 296.718L504.011 299.282C504.011 300.145 505.073 301 505.866 301 507.196 301 508 300.145 508 299.282L508 296.718C508 295.855 506.939 295 505.866 295Z" fill="#35170A" fill-rule="evenodd"/><path d="M472.332 295C471.006 295 470 295.855 470 296.718L470 299.282C470 300.145 471.006 301 472.332 301 473.659 301 474.986 300.145 474.986 299.282L474.986 296.718C474.986 295.855 473.659 295 472.332 295Z" fill="#35170A" fill-rule="evenodd"/><path d="M486.136 300C485.689 300 485.253 300.142 484.805 300.378 484.011 301.5 484.011 302.622 484.537 303.744 485.868 305.433 487.467 306 489.603 306 491.471 306 493.327 305.433 495.195 303.744 495.989 302.622 495.989 301.217 494.926 300.378 494.49 300.142 493.998 300 493.54 300 492.902 300 492.309 300.272 491.996 300.933 491.471 301.5 490.665 301.783 489.871 301.783 489.335 301.783 488.272 301.5 488.004 300.933 487.377 300.272 486.751 300 486.136 300Z" fill="#35170A" fill-rule="evenodd"/></g></svg>