<svg width="85" height="78" xmlns="http://www.w3.org/2000/svg" xmlns:xlink="http://www.w3.org/1999/xlink" overflow="hidden"><defs><clipPath id="clip0"><rect x="382" y="155" width="85" height="78"/></clipPath></defs><g clip-path="url(#clip0)" transform="translate(-382 -155)"><path d="M406.855 205C406.855 205 391.008 214.209 393.464 232L401.388 232 402.893 230.886 404.216 232 419.881 232 424.595 228.819 429.309 232 444.784 232 446.297 230.886 447.612 232 455.726 232C457.992 214.209 442.328 205 442.328 205Z" fill="#E0D6D2" fill-rule="evenodd"/><path d="M421.342 213.007 420.386 218.82C420 219.446 420.579 220.39 421.342 220.707L423.447 221.644C423.825 221.881 424.259 222 424.669 222 425.071 222 425.456 221.881 425.746 221.644L428.036 220.707C428.614 220.39 428.992 219.605 428.614 218.82L427.658 213.007Z" fill="#EA8249" fill-rule="evenodd"/><path d="M414.713 210.006 410.008 213.251 412.365 217.735C412.859 218.52 413.922 218.994 415.026 218.994 415.661 218.994 416.303 218.844 416.872 218.507L420.992 215.567 414.713 210.006Z" fill="#FFFFFF" fill-rule="evenodd"/><path d="M434.283 210.006 428 215.567 432.123 218.507C432.692 218.844 433.343 218.994 433.97 218.994 435.083 218.994 436.139 218.52 436.642 217.735L439 213.251 434.283 210.006Z" fill="#FFFFFF" fill-rule="evenodd"/><path d="M424.431 155.007C402.63 155.007 385.008 169.587 385.008 187.407L390.309 191.462 424.431 196 458.362 192.271 461.768 187.407C464.992 177.201 463.671 168.288 462.716 163.913 462.533 162.294 460.821 161.321 458.927 161.321 449.638 161.321 443.764 155.007 424.431 155.007Z" fill="#231007" fill-rule="evenodd"/><path d="M424.3 155.007C402.466 155.007 385 169.545 385 187.312L390.126 191.356 394.494 192 392.214 190.223C392.214 171.967 408.923 157.103 429.992 155.326 428.286 155.007 426.389 155.007 424.3 155.007Z" fill="#1C0C05" fill-rule="evenodd"/><path d="M400.942 176C400.942 186.654 390.329 189.118 390.329 189.118L390.138 189.441 389 192.717 391.466 196C395.826 207.638 409.088 215.993 424.435 215.993 439.782 215.993 453.044 207.638 457.396 196L461 193.213 458.725 189.118 458.534 189.118C458.534 189.118 447.929 186.819 447.929 176 447.929 176 437.888 178.299 424.435 178.299 410.982 178.299 400.942 176 400.942 176Z" fill="#FED2BA" fill-rule="evenodd"/><path d="M421.703 194.007C421.426 194.007 421.133 194.086 420.805 194.23 420 194.741 420 195.432 420.604 195.942 421.602 197.317 423.196 198 425.201 198 427.198 198 428.792 197.144 429.992 195.942 429.992 195.597 429.992 194.741 429.195 194.23 428.985 194.108 428.742 194.05 428.498 194.05 428.054 194.05 427.584 194.237 427.198 194.576 426.795 195.086 425.797 195.597 425 195.597 424.195 195.597 423.196 195.086 422.802 194.576 422.45 194.173 422.097 194.007 421.703 194.007Z" fill="#281208" fill-rule="evenodd"/><path d="M402.303 196C401.562 196 401 196.536 401 196.933 401 197.464 401.562 198 402.303 198L407.697 198C408.438 198 408.992 197.464 408.992 196.933 408.992 196.536 408.438 196 407.697 196Z" fill="#FDA879" fill-rule="evenodd"/><path d="M404.933 187.007C404.402 187.007 404.006 187.671 404.006 188.166L404.006 191.827C404.006 192.329 404.268 192.993 404.933 192.993 405.464 192.993 406 192.329 406 191.827L406 188.166C406 187.671 405.464 187.007 404.933 187.007Z" fill="#281208" fill-rule="evenodd"/><path d="M444.596 187.007C443.802 187.007 443.008 187.671 443.008 188.166L443.008 191.827C443.409 192.329 443.802 192.993 444.596 192.993 445.398 192.993 445.992 192.329 445.992 191.827L445.992 188.166C445.992 187.671 445.398 187.007 444.596 187.007Z" fill="#281208" fill-rule="evenodd"/><path d="M442.303 196C441.562 196 441 196.536 441 196.933 441 197.464 441.562 198 442.303 198L447.697 198C448.438 198 448.992 197.464 448.992 196.933 448.813 196.536 448.438 196 447.697 196Z" fill="#FDA879" fill-rule="evenodd"/><path d="M459.963 183.007C459.766 186.252 459.371 189.503 459.371 189.824 459.174 191.937 458.788 194.044 458 195.993L459.174 195.993C463.674 195.993 467 193.069 467 189.503 467 186.088 463.871 183.334 459.963 183.007Z" fill="#FDBD9B" fill-rule="evenodd"/><path d="M389.887 183C386.066 183.319 383.008 186.013 383.008 189.339 383.008 192.977 386.636 195.671 390.649 195.671L391.797 195.671C395.81 206.127 407.665 214.049 422 215 409.768 210.404 400.208 201.85 396.388 191.234 395.81 190.13 395.433 188.7 395.24 187.596 392.752 189.02 390.842 189.339 390.842 189.339L390.465 189.498C390.465 189.498 389.887 186.326 389.887 183Z" fill="#FDBD9B" fill-rule="evenodd"/></g></svg>