<svg width="76" height="75" xmlns="http://www.w3.org/2000/svg" xmlns:xlink="http://www.w3.org/1999/xlink" overflow="hidden"><defs><clipPath id="clip0"><rect x="520" y="155" width="76" height="75"/></clipPath></defs><g clip-path="url(#clip0)" transform="translate(-520 -155)"><path d="M557.911 155.007C537.511 155.007 521.007 168.922 521.007 185.935L521.007 207.273C521.007 210.364 524.025 212.993 527.75 212.993L588.25 212.993C591.804 212.993 594.993 210.519 594.993 207.273L594.993 185.935C594.642 168.922 578.318 155.007 557.911 155.007Z" fill="#5ECA83" fill-rule="evenodd"/><path d="M557.756 155.007C537.442 155.007 521.007 168.922 521.007 185.935L521.007 207.273C521.007 210.364 524.012 212.993 527.722 212.993L536.024 212.993C532.315 212.838 529.488 210.364 529.488 207.273L529.488 185.935C529.488 170.162 543.622 157.013 562 155.162 560.583 155.007 558.995 155.007 557.756 155.007Z" fill="#37A25B" fill-rule="evenodd"/><path d="M541.102 203C541.102 203 526 211.868 528.34 229L535.887 229 537.328 227.928 538.581 229 546.491 229 557.992 215.997 546.491 203Z" fill="#2F1509" fill-rule="evenodd"/><path d="M569.567 203 558 215.997 569.567 229 577.34 229 578.789 227.928 580.057 229 587.829 229C589.992 211.868 574.994 203 574.994 203Z" fill="#2F1509" fill-rule="evenodd"/><path d="M547 203 547 229 569 229 569 203Z" fill="#E0D6D2" fill-rule="evenodd"/><path d="M537.601 217C536.796 217 536 217.653 536 218.3L536 229 538.992 229 538.992 218.3C538.992 217.653 538.397 217 537.601 217Z" fill="#291208" fill-rule="evenodd"/><path d="M578.601 217C577.804 217 577 217.653 577 218.3L577 229 580 229 580 218.3C580 217.653 579.397 217 578.601 217Z" fill="#291208" fill-rule="evenodd"/><path d="M549.872 173C542.976 183.951 526.007 186.538 526.007 186.538 526.007 201.135 540.326 212.994 558 212.994 575.681 212.994 590 201.135 590 186.538 561.363 184.865 549.872 173 549.872 173Z" fill="#FED2BA" fill-rule="evenodd"/><path d="M555.54 194.007C555.291 194.007 555.019 194.086 554.725 194.23 554.008 194.747 554.008 195.429 554.544 195.939 555.442 197.311 556.884 197.993 558.681 197.993 560.478 197.993 561.913 197.138 562.992 195.939 562.992 195.601 562.819 194.747 562.275 194.23 562.086 194.108 561.875 194.05 561.648 194.05 561.248 194.05 560.826 194.244 560.478 194.575 560.116 195.084 559.217 195.601 558.5 195.601 557.783 195.601 556.884 195.084 556.522 194.575 556.205 194.172 555.888 194.007 555.54 194.007Z" fill="#281208" fill-rule="evenodd"/><path d="M536.303 195.008C535.562 195.008 535.008 195.804 535.008 196.399 535.008 197.204 535.562 198 536.303 198L541.697 198C542.438 198 543 197.204 543 196.399 543 195.804 542.438 195.008 541.697 195.008Z" fill="#FDA879" fill-rule="evenodd"/><path d="M539.067 188C538.531 188 538 188.42 538 188.973L538 191.887C538.268 192.58 538.531 192.994 539.067 192.994 539.598 192.994 539.994 192.441 539.994 191.887L539.994 188.973C539.994 188.42 539.598 188 539.067 188Z" fill="#281208" fill-rule="evenodd"/><path d="M576.601 188C575.796 188 575 188.42 575 188.973L575 191.887C575 192.58 575.796 192.994 576.601 192.994 577.397 192.994 577.992 192.441 577.992 191.887L577.992 188.973C577.992 188.42 577.397 188 576.601 188Z" fill="#281208" fill-rule="evenodd"/><path d="M574.457 195.008C573.732 195.008 573.008 195.804 573.008 196.399 573.008 197.204 573.732 198 574.457 198L579.726 198C580.276 198 581 197.204 581 196.399 581 195.804 580.276 195.008 579.726 195.008Z" fill="#FDA879" fill-rule="evenodd"/><path d="M531.775 185C528.275 186.247 526.007 186.554 526.007 186.554 526.007 199.624 536.662 210.355 550.993 213 539.634 207.246 532.12 196.979 531.775 185Z" fill="#FDBD9B" fill-rule="evenodd"/></g></svg>