<svg width="47" height="52" xmlns="http://www.w3.org/2000/svg" xmlns:xlink="http://www.w3.org/1999/xlink" overflow="hidden"><defs><clipPath id="clip0"><rect x="164" y="345" width="47" height="52"/></clipPath></defs><g clip-path="url(#clip0)" transform="translate(-164 -345)"><path d="M187.495 345C175.093 345 165 354.835 165 366.922L165 381.929C165 384.181 166.805 385.998 169.021 385.998L205.977 385.998C208.194 385.998 209.998 384.181 209.998 381.929L209.998 366.922C209.998 354.835 199.906 345 187.495 345Z" fill="#AE5C2A" fill-rule="evenodd"/><path d="M187.422 345C175.059 345 165 354.835 165 366.922L165 381.929C165 384.181 166.781 385.998 168.968 385.998L174.122 385.998C171.941 385.989 170.16 384.18 170.151 381.929L170.151 366.922C170.151 355.688 178.845 346.401 189.998 345.149 189.14 345.056 188.281 345 187.422 345ZM174.122 385.998C174.128 385.998 174.134 385.998 174.138 385.998 174.144 385.998 174.15 385.998 174.155 385.998Z" fill="#894921" fill-rule="evenodd"/><path d="M176.955 378.002C176.955 378.002 168.002 384.372 169.3 396.998L173.885 396.998 174.648 396.165 175.42 396.998 180.133 396.998 187 387.495 180.133 378.002Z" fill="#37A25B" fill-rule="evenodd"/><path d="M193.867 378.002 187.002 387.505 193.867 396.998 198.58 396.998 199.352 396.099 200.124 396.998 204.7 396.998C205.998 384.372 197.045 378.002 197.045 378.002Z" fill="#37A25B" fill-rule="evenodd"/><path d="M180 378.002 180 396.998 194 396.998 194 378.002Z" fill="#E0F5F0" fill-rule="evenodd"/><path d="M174.999 389.002C174.959 389.002 174.921 389.003 174.88 389.006 174.374 389.062 174 389.406 174.012 389.805L174.012 396.998 175.998 396.998 175.998 389.786C175.998 389.353 175.548 389.002 174.999 389.002Z" fill="#338750" fill-rule="evenodd"/><path d="M199.997 389.002C199.959 389.002 199.921 389.003 199.88 389.006 199.362 389.062 199.002 389.406 199.002 389.805L199.002 396.998 200.988 396.998 200.988 389.786C200.998 389.353 200.538 389.002 199.997 389.002Z" fill="#338750" fill-rule="evenodd"/><path d="M182.448 357C178.321 364.898 168.018 366.813 168 366.822 168.018 377.41 176.734 385.998 187.501 385.998 198.257 385.998 206.973 377.41 207 366.822 189.45 365.562 182.448 357 182.448 357Z" fill="#F6B18B" fill-rule="evenodd"/><path d="M185.795 372.002C185.651 372.002 185.504 372.06 185.378 372.184 185.066 372.48 185 373.069 185.23 373.474 185.796 374.491 186.65 374.998 187.503 374.998 188.355 374.998 189.206 374.491 189.768 373.474 189.999 373.069 189.933 372.491 189.622 372.184 189.498 372.06 189.354 372.002 189.211 372.002 188.999 372.002 188.79 372.13 188.653 372.37 188.365 372.889 187.932 373.148 187.5 373.148 187.068 373.148 186.638 372.889 186.354 372.37 186.217 372.13 186.009 372.002 185.795 372.002Z" fill="#27564C" fill-rule="evenodd"/><path d="M174.71 373.002C174.334 373.002 174.026 373.424 174.01 373.97 174.001 374.537 174.302 374.998 174.677 374.998L177.282 374.998C177.288 374.998 177.293 374.998 177.297 374.998 177.666 374.998 177.966 374.568 177.982 374.03 177.999 373.473 177.698 373.002 177.315 373.002Z" fill="#DA7875" fill-rule="evenodd"/><path d="M176.002 368.002C175.458 368.002 175.002 368.362 175.002 368.809L175.002 371.191C175.014 371.638 175.46 371.998 176.002 371.998 176.01 371.998 176.016 371.998 176.024 371.998 176.564 371.969 176.998 371.596 176.986 371.152L176.986 368.848C176.998 368.404 176.564 368.031 176.024 368.002 176.016 368.002 176.01 368.002 176.002 368.002Z" fill="#27564C" fill-rule="evenodd"/><path d="M198.497 368.002C198.224 368.002 198 368.362 198 368.809L198 371.191C198 371.638 198.224 371.998 198.497 371.998 198.502 371.998 198.506 371.998 198.509 371.998 198.788 371.969 198.999 371.596 198.993 371.152L198.993 368.848C198.999 368.404 198.788 368.031 198.509 368.002 198.506 368.002 198.502 368.002 198.497 368.002Z" fill="#27564C" fill-rule="evenodd"/><path d="M196.896 373.002C196.428 373.002 196.041 373.424 196.01 373.97 196 374.537 196.388 374.998 196.855 374.998L200.113 374.998C200.119 374.998 200.126 374.998 200.133 374.998 200.592 374.998 200.969 374.568 200.988 374.03 200.998 373.473 200.623 373.002 200.153 373.002Z" fill="#DA7875" fill-rule="evenodd"/><path d="M171.545 366C170.392 366.431 169.206 366.779 168 367.03 168.018 375.85 174.441 383.209 183 385 176.223 381.177 171.651 374.113 171.545 366Z" fill="#DE8C5F" fill-rule="evenodd"/></g></svg>