<svg width="47" height="50" xmlns="http://www.w3.org/2000/svg" xmlns:xlink="http://www.w3.org/1999/xlink" overflow="hidden"><defs><clipPath id="clip0"><rect x="305" y="347" width="47" height="50"/></clipPath></defs><g clip-path="url(#clip0)" transform="translate(-305 -347)"><path d="M318.483 379.001C318.483 379.001 310.001 384.704 311.231 395.999L315.575 395.999 316.299 395.246 317.03 395.999 325.476 395.999 327.996 393.948 330.524 395.999 338.963 395.999 339.694 395.295 340.425 395.999 344.76 395.999C346 384.704 337.51 379.001 337.51 379.001Z" fill="#E0F5F0" fill-rule="evenodd"/><path d="M315.999 389.001C315.961 389.001 315.921 389.003 315.88 389.005 315.374 389.054 315 389.356 315.012 389.697L315.012 395.999 317 395.999 317 389.688C317 389.31 316.548 389.001 315.999 389.001Z" fill="#B0E5D9" fill-rule="evenodd"/><path d="M340 389.001C339.96 389.001 339.92 389.003 339.879 389.005 339.374 389.054 339 389.356 339.012 389.697L339.012 395.999 340.988 395.999 340.988 389.688C341 389.31 340.549 389.001 340 389.001Z" fill="#B0E5D9" fill-rule="evenodd"/><path d="M326.799 389 326 395.999 330.999 395.999 330.208 389Z" fill="#A02623" fill-rule="evenodd"/><path d="M326.723 384.001 326.146 387.784C326.001 388.304 326.227 388.85 326.687 389.124L327.87 389.82C328.062 389.94 328.282 389.999 328.501 389.999 328.719 389.999 328.938 389.94 329.132 389.82L330.304 389.124C330.774 388.85 331 388.304 330.855 387.784L330.286 384.001Z" fill="#CA3E3A" fill-rule="evenodd"/><path d="M322.492 382 320 384.181 321.386 387.156C321.642 387.702 322.191 388 322.748 388 323.101 388 323.455 387.88 323.742 387.631L325.998 385.673 322.492 382Z" fill="#FFFFFF" fill-rule="evenodd"/><path d="M333.508 382 330 385.673 332.256 387.631C332.547 387.88 332.905 388 333.257 388 333.816 388 334.363 387.702 334.612 387.156L335.998 384.181 333.508 382Z" fill="#FFFFFF" fill-rule="evenodd"/><path d="M328.215 347.001C316.515 347.001 307 356.232 307 367.579L309.84 370.138 328.215 373 346.485 370.729 348.446 367.579C350 361.123 349.36 355.467 348.859 352.691 348.679 351.731 347.852 351.038 346.883 351.038 346.877 351.038 346.871 351.038 346.865 351.038 346.834 351.038 346.802 351.039 346.77 351.039 341.833 351.039 338.596 347.001 328.215 347.001Z" fill="#214A41" fill-rule="evenodd"/><path d="M327.955 347.001C316.398 347.001 307 356.427 307 368.013L309.806 370.626 312.126 370.999 311 369.924C311 358.116 319.768 348.361 331 347.134 330.053 347.053 329.046 347.001 327.955 347.001Z" fill="#1B3C35" fill-rule="evenodd"/><path d="M315.56 361.001C315.56 367.737 309.791 369.192 309.791 369.192L309.618 369.262 309 371.291 310.391 373.321C312.727 380.657 319.843 385.999 328.244 385.999 336.654 385.999 343.76 380.657 346.105 373.321L347.999 371.709 346.879 369.244 346.704 369.192C346.704 369.192 340.928 367.737 340.928 361.001 340.928 361.001 335.576 362.378 328.244 362.378 320.921 362.378 315.56 361.001 315.56 361.001Z" fill="#F6B18B" fill-rule="evenodd"/><path d="M330.056 372C329.799 372 329.545 372.131 329.381 372.378 329.041 372.897 328.521 373.155 328 373.155 327.479 373.155 326.959 372.897 326.618 372.378 326.455 372.133 326.201 372.005 325.946 372.005 325.771 372.005 325.596 372.064 325.445 372.182 325.079 372.488 325 373.066 325.277 373.479 325.952 374.492 326.975 374.998 328.002 374.998 329.026 374.998 330.051 374.492 330.733 373.479 330.998 373.066 330.929 372.488 330.555 372.182 330.404 372.06 330.229 372 330.056 372Z" fill="#27564C" fill-rule="evenodd"/><path d="M315.694 373C315.331 373 315.034 373.423 315.017 373.975 315.001 374.536 315.3 374.998 315.678 374.998L318.257 374.998C318.262 375 318.268 375 318.273 375 318.614 375 318.895 374.626 318.95 374.121 318.999 373.525 318.685 373 318.289 373L315.711 373C315.705 373 315.7 373 315.694 373Z" fill="#DA7875" fill-rule="evenodd"/><path d="M317.497 368C317.224 368 317 368.27 317 368.606L317 370.393C317 370.729 317.224 371 317.497 371 317.502 371 317.505 371 317.509 371 317.788 370.978 317.999 370.697 317.993 370.365L317.993 368.635C317.999 368.303 317.788 368.022 317.509 368 317.505 368 317.502 368 317.497 368Z" fill="#27564C" fill-rule="evenodd"/><path d="M338.997 368C338.449 368 338 368.27 338 368.606L338 370.393C338 370.729 338.449 371 338.997 371 339.003 371 339.011 371 339.017 371 339.575 370.978 339.998 370.697 339.986 370.365L339.986 368.635C339.998 368.303 339.575 368.022 339.017 368 339.011 368 339.003 368 338.997 368Z" fill="#27564C" fill-rule="evenodd"/><path d="M337.688 373C337.331 373 337.032 373.423 337.008 373.975 337 374.536 337.299 374.998 337.671 374.998L340.265 374.998C340.27 375 340.276 375 340.281 375 340.621 375 340.903 374.626 340.951 374.121 341 373.525 340.692 373 340.297 373L337.703 373C337.697 373 337.693 373 337.688 373Z" fill="#DA7875" fill-rule="evenodd"/><path d="M347.071 365C347.053 367.016 346.803 369.034 346.803 369.034L346.794 369.108C346.696 370.414 346.428 371.702 346.001 372.957 346.207 372.982 346.411 372.999 346.625 372.999 348.888 372.999 350.759 371.325 350.884 369.2 351 367.075 349.325 365.235 347.071 365Z" fill="#DE8C5F" fill-rule="evenodd"/><path d="M308.831 365C306.63 365.237 305 367.165 305.122 369.399 305.234 371.63 307.054 373.37 309.256 373.37 309.262 373.37 309.268 373.37 309.272 373.37 309.472 373.37 309.672 373.361 309.872 373.326 312.047 380.206 318.355 385.341 326 385.999 319.448 382.931 314.412 377.323 312.245 370.496 311.986 369.68 311.769 368.856 311.595 368.015 310.885 368.531 310.096 368.927 309.264 369.172L309.091 369.243 309.1 369.225C309.1 369.225 308.857 367.112 308.831 365Z" fill="#DE8C5F" fill-rule="evenodd"/></g></svg>