<svg width="41" height="28" xmlns="http://www.w3.org/2000/svg" xmlns:xlink="http://www.w3.org/1999/xlink" overflow="hidden"><defs><clipPath id="clip0"><rect x="759" y="244" width="41" height="28"/></clipPath></defs><g clip-path="url(#clip0)" transform="translate(-759 -244)"><path d="M761.795 245C760.861 245 760.003 245.808 760.003 246.852L760.003 269.148C760.003 270.111 760.704 270.997 761.795 270.997L797.127 270.997C798.063 270.997 799 270.192 799 269.148L799 246.852C799 245.885 798.063 245 797.127 245Z" fill="#459B88" fill-rule="evenodd"/><path d="M762.456 247C761.728 247 761.004 247.485 761.004 247.968 761.004 248.515 761.728 248.997 762.456 248.997 763.272 248.997 763.996 248.515 763.996 247.968 763.996 247.485 763.272 247 762.456 247Z" fill="#80D5C2" fill-rule="evenodd"/><path d="M796.498 247C795.657 247 795 247.485 795 247.968 795 248.515 795.657 248.997 796.498 248.997 797.339 248.997 797.996 248.515 797.996 247.968 797.996 247.485 797.339 247 796.498 247Z" fill="#80D5C2" fill-rule="evenodd"/><path d="M762.456 266.004C761.728 266.004 761.004 266.728 761.004 267.544 761.004 268.272 761.728 269 762.456 269 763.272 269 763.996 268.272 763.996 267.544 763.996 266.728 763.272 266.183 762.456 266.004Z" fill="#80D5C2" fill-rule="evenodd"/><path d="M796.498 266.004C795.657 266.004 795 266.728 795 267.544 795 268.272 795.657 269 796.498 269 797.339 269 797.996 268.272 797.996 267.544 797.996 266.728 797.339 266.183 796.498 266.004Z" fill="#80D5C2" fill-rule="evenodd"/><path d="M766.738 248.003C766.039 249.696 764.791 251.145 763.003 251.873L763.003 264.127C764.637 264.855 766.039 266.145 766.738 267.997L792.419 267.997C792.961 266.226 794.363 264.855 795.997 264.127L795.997 251.873C794.363 251.145 792.961 249.855 792.262 248.003Z" fill="#80D5C2" fill-rule="evenodd"/><path d="M779.542 252.003C775.899 252.003 773.003 254.659 773.003 258 773.003 261.341 775.899 264 779.542 264 783.101 264 786 261.341 786 258 786 254.659 783.101 252.003 779.542 252.003Z" fill="#459B88" fill-rule="evenodd"/><path d="M768.045 256C766.839 256 766 256.951 766 257.998 766 259.237 766.929 259.996 768.045 259.996 769.161 259.996 769.996 259.045 769.996 257.998 769.996 256.859 769.161 256 768.045 256Z" fill="#459B88" fill-rule="evenodd"/><path d="M790.955 256C789.839 256 789.004 256.951 789.004 257.998 789.004 259.237 789.933 259.996 790.955 259.996 792.161 259.996 793 259.045 793 257.998 793 256.859 792.161 256 790.955 256Z" fill="#459B88" fill-rule="evenodd"/></g></svg>