<svg width="58" height="58" xmlns="http://www.w3.org/2000/svg" xmlns:xlink="http://www.w3.org/1999/xlink" overflow="hidden"><defs><clipPath id="clip0"><rect x="446" y="160" width="58" height="58"/></clipPath></defs><g clip-path="url(#clip0)" transform="translate(-446 -160)"><path d="M473.189 188C471.49 188 470 189.415 470 191.23 470 194.153 475.235 197.369 479 200 482.599 197.369 488 194.153 488 191.23 488 189.619 486.691 188.014 484.235 188.014 481.617 188.014 480.636 190.645 480.636 190.645 480.392 191.448 479.613 191.852 478.834 191.852 478.06 191.852 477.281 191.448 477.037 190.645 477.037 190.497 476.055 188.014 473.438 188.014 473.355 188.005 473.272 188 473.189 188Z" fill="#D86836" fill-rule="evenodd"/><path d="M462.752 177.106C463.612 177.106 464.314 177.678 464.609 178.496 464.778 179.406 463.945 180.161 463.116 180.464 458.463 181.071 455.804 186.229 458.294 190.473 458.796 191.228 458.463 192.292 457.63 192.744 457.366 192.84 457.07 192.893 456.775 192.893 456.131 192.893 455.477 192.657 455.139 192.138 451.483 186.075 455.472 178.342 462.452 177.13 462.552 177.115 462.657 177.106 462.752 177.106ZM484.889 183.799C489.047 183.799 492.202 186.835 492.202 190.622 492.202 195.323 487.216 198.2 480.569 203.359 480.236 203.662 479.819 203.811 479.403 203.811 478.991 203.811 478.574 203.662 478.242 203.359 471.595 198.354 466.604 195.323 466.604 190.622 466.604 186.835 469.933 183.799 473.921 183.799 476.58 183.799 478.405 185.165 479.571 186.229 480.569 185.011 482.394 183.799 484.889 183.799ZM482.062 160C477.076 160 473.088 163.792 473.088 168.339L473.088 173.949C470.096 171.524 466.44 170.158 462.452 170.158 450.65 170.158 443.005 181.677 448.154 191.835L458.294 211.24C460.125 214.724 463.781 217 467.938 217 470.597 217 473.088 216.091 474.918 214.575 476.744 216.24 479.239 217 482.062 217 486.219 217 489.875 214.878 491.537 211.24L501.677 191.835C506.995 181.677 499.018 170.158 487.385 170.158 483.391 170.158 479.735 171.524 476.744 173.949L476.744 168.339C476.744 165.611 479.07 163.335 482.062 163.335 483.059 163.335 483.892 162.579 483.892 161.67 483.892 160.76 483.059 160 482.062 160Z" fill="#D86836" fill-rule="evenodd"/></g></svg>