<svg width="28" height="39" xmlns="http://www.w3.org/2000/svg" xmlns:xlink="http://www.w3.org/1999/xlink" overflow="hidden"><defs><clipPath id="clip0"><rect x="437" y="227" width="28" height="39"/></clipPath></defs><g clip-path="url(#clip0)" transform="translate(-437 -227)"><path d="M451.002 258C443.222 258 437 259.557 437 261.5 437 263.443 443.222 265 451.002 265 458.778 265 465 263.443 465 261.5 465 259.557 458.778 258 451.002 258Z" fill="#B69F94" fill-rule="evenodd"/><path d="M451 227.003C447.809 227.003 444.701 228.433 442.522 230.901 437 237.183 439.799 246.487 443.61 252.772 445.788 256.112 448.276 259.215 451 261.997 453.72 259.215 456.366 256.112 458.387 252.772 462.198 246.487 464.997 237.183 459.474 230.901 457.299 228.433 454.187 227.003 451 227.003Z" fill="#ED844A" fill-rule="evenodd"/><path d="M446.589 228.003C445.044 228.715 443.573 229.747 442.567 231.015 437.003 237.274 439.863 246.544 443.573 252.806 445.66 256.134 448.134 259.225 450.916 261.997 451.305 261.601 451.692 261.205 452 260.809 449.371 258.114 446.975 255.262 445.044 252.011 441.256 245.752 438.47 236.482 443.96 230.219 444.732 229.351 445.66 228.636 446.589 228.003Z" fill="#AE6137" fill-rule="evenodd"/><path d="M451.002 230C446.027 230 442.003 234.028 442.003 239 442.003 243.972 446.027 248 451.002 248 455.973 248 459.997 243.972 459.997 239 459.997 234.028 455.973 230 451.002 230Z" fill="#E2D8D4" fill-rule="evenodd"/><path d="M447.821 230.003 447.821 230.003C444.519 231.312 442.003 234.665 442.003 238.674 442.003 243.744 446.091 248 450.968 248 452.853 248 454.583 247.344 456 246.365L456 246.365C454.976 246.774 454.032 246.935 452.853 246.935 447.9 246.935 443.889 242.765 443.889 237.609 443.889 234.5 445.464 231.639 447.821 230.003Z" fill="#B69F94" fill-rule="evenodd"/></g></svg>