<svg width="27" height="41" xmlns="http://www.w3.org/2000/svg" xmlns:xlink="http://www.w3.org/1999/xlink" overflow="hidden"><defs><clipPath id="clip0"><rect x="365" y="240" width="27" height="41"/></clipPath></defs><g clip-path="url(#clip0)" transform="translate(-365 -240)"><path d="M377.918 240C370.887 240 365 245.677 365 252.792 365 261.427 372.03 273.581 376.201 279.097 376.651 279.698 377.344 279.997 378.031 279.997 378.714 279.997 379.39 279.698 379.799 279.097 383.966 273.581 390.997 261.427 390.997 252.792 390.997 245.677 385.192 240 377.918 240Z" fill="#EE8B90" fill-rule="evenodd"/><path d="M378.078 266.003C374.231 266.003 372.306 267.2 370 267.999 372.077 272.472 374.46 276.466 376.308 279.098 376.731 279.698 377.383 279.997 378.029 279.997 378.672 279.997 379.308 279.698 379.692 279.098 381.537 276.466 383.998 272.472 385.997 267.999 383.92 267.2 381.921 266.003 378.078 266.003Z" fill="#E9666C" fill-rule="evenodd"/><path d="M380.993 278.005C380.896 278.083 380.806 278.172 380.722 278.266L380.722 278.266C380.819 278.188 380.91 278.099 380.993 278.005ZM380.722 278.266C380.438 278.51 380.125 278.719 380 278.995 380.347 278.74 380.528 278.484 380.722 278.266Z" fill="#FADBDD" fill-rule="evenodd"/><path d="M376.2 241.003 376.2 241.003C370.864 241.949 366.719 246.298 366.003 251.752L366.003 251.832 366.003 251.911 366.003 251.991C366.003 257.203 368.556 263.739 371.49 269.266L371.49 269.266C371.109 268.533 370.737 267.779 370.386 267.009 372.296 266.378 373.889 265.429 376.441 265.193 375.642 262.979 375.086 260.529 374.608 258.076 372.694 256.811 371.42 254.6 371.42 252.071 371.42 249.857 372.377 247.878 373.969 246.537 374.049 244.954 374.845 242.583 376.2 241.003ZM371.49 269.266C372.614 271.434 373.825 273.426 374.956 275.122L374.956 275.122C373.828 273.416 372.631 271.417 371.49 269.266ZM374.956 275.122C375.679 276.211 376.368 277.183 376.997 278 376.378 277.18 375.685 276.211 374.956 275.122Z" fill="#EC7A80" fill-rule="evenodd"/><path d="M376.03 266.003C373.446 266.324 371.881 267.209 370 267.932 372.193 272.438 374.619 276.457 376.5 279.112 376.891 279.676 377.595 279.997 378.302 279.997 378.926 279.997 379.554 279.676 380.021 279.112 380.258 278.872 380.337 278.71 380.491 278.47 381.274 277.342 382.06 276.217 382.997 274.768L382.684 274.768C380.1 274.609 377.674 270.989 376.03 266.003Z" fill="#37A25B" fill-rule="evenodd"/><path d="M378.543 246C374.489 246 371.085 249.104 371.003 252.96 371.003 256.82 374.325 259.997 378.543 259.997 382.675 259.997 385.997 256.82 385.997 252.96 385.997 249.104 382.675 246 378.543 246Z" fill="#FBE193" fill-rule="evenodd"/><path d="M385.04 254 385.04 254 385.04 254ZM385.04 254 385.04 254 385.04 254ZM385.04 253.9 385.04 253.9 385.04 253.9ZM385.04 253.9 385.04 253.9 385.04 253.9ZM385.04 253.9 385.04 253.9 385.04 253.9ZM385.04 253.9 385.04 253.9 385.04 253.9ZM385.96 253.1 385.96 253.799 385.96 253.1ZM385.96 253 385.96 253.1 385.96 253ZM385.96 253 385.96 253 385.96 253 385.96 253Z" fill="#ED868B" fill-rule="evenodd"/><path d="M378.284 246C376.251 246 374.303 246.762 373.003 248.05 373.815 247.9 374.709 247.671 375.681 247.671 380.477 247.671 386 250.632 383.401 257.997 384.618 256.859 385.594 255.341 385.754 253.747L385.754 253.291 385.754 253.215C385.754 249.115 382.425 246 378.284 246Z" fill="#EECA64" fill-rule="evenodd"/></g></svg>